<?xml version="1.0" encoding="utf-8"?>
<!DOCTYPE svg PUBLIC "-//W3C//DTD SVG 1.1//EN" "http://www.w3.org/Graphics/SVG/1.1/DTD/svg11.dtd">
<svg version="1.1" id="Layer_1" xmlns="http://www.w3.org/2000/svg" xmlns:xlink="http://www.w3.org/1999/xlink" x="0px" y="0px"
	 viewBox="0 0 1104.1259 1497.9305" enable-background="new 0 0 1104.1259 1497.9305" xml:space="preserve">
<g>
	<polygon fill="none" points="524.2937,1456.9653 524.2955,1456.9653 524.2972,1456.9653 	"/>
	<polygon fill="none" points="319.76,40.9655 319.7591,40.9653 319.7584,40.9655 	"/>
	<path d="M317.3482,43.0854l-4.3647,8.6045c-1.7457,8.667-6.8794,15.6921-6.8794,24.6293c0,7.0665-2.12,15.3386-0.7898,22.4675
		l0.4988-8.0433c0.291-2.889,0.8314-15.7129,4.8635-15.7129c2.7435,0,4.2607,2.5356,6.4639,3.8035
		c3.0553,1.7875,5.0505,0.1455,7.7941-1.0808c1.1432-0.5195,15.0477-2.7019,17.4171-3.3669l-2.9307,0.0208
		c-8.106,0.6028-23.5692,2.2031-25.3774-5.4038c-2.0161-8.6252-2.4109-16.9182,6.734-20.7632
		c1.8914-0.7898-1.4133-4.4479-2.785-4.4479c0-0.9769,3.3047-1.933,2.2861-2.6604c-0.166-0.1245-0.3528-0.1661-0.5187-0.1661
		h-0.0016C318.7611,40.9662,317.6391,42.5036,317.3482,43.0854z"/>
	<path d="M214.5293,295.4457c-1.2263,1.0599-0.7898,3.0344-2.3695,3.8658l-0.6443,0.7274c1.4342,0,4.0114-0.2285,4.8842-1.4341
		c0.686-0.9561,2.0577-1.6211,3.4294-2.0161c1.2054-0.3325,2.3279-0.3533,3.5957-0.4364c0.7274-0.0209,4.5725-0.478,4.6555-1.0599
		c-2.3901,0-4.5931-0.3534-6.9625-0.0833C219.3512,295.2172,215.8388,294.3234,214.5293,295.4457z"/>
	<path d="M288.2505,298.8959c-0.187,0.1455-0.3533,0.2078-0.4988,0.4156c-0.3949,0.6028-0.5404,1.5588-0.2909,2.2448
		c0.1246,0.291,0.1663,0.4988,0.5195,0.6443c0.5403,0.2285,1.6003-0.2079,2.0784-0.4365c0.2286-0.1248,0.4158-0.3325,0.6443-0.4988
		c0.3949-0.3325,0.873-0.7275,1.2054-1.1639l0.291-1.2887c-0.3741-0.1661-0.5819-0.2908-0.9352-0.4156
		c-0.104-0.0624-0.3741-0.0415-0.4988-0.0831C290.0172,298.1061,288.9364,298.3972,288.2505,298.8959z"/>
	<path d="M325.6617,148.1074c0.104,0.5405,0.1248,0.9146,0.4988,1.3718c0.4781,0.5612,0.6652,0.291,1.3511,0.2078l0.1455-2.4316
		c0-1.5381,0-2.9514-0.7067-4.3024c-0.1039-0.2079-0.9352-2.5149-1.4342-2.016c-0.9143,0.8938-0.3533,3.6372-0.3533,4.9465
		C325.1629,146.7773,325.4955,147.3383,325.6617,148.1074z"/>
	<path d="M312.6095,114.6657c-0.2079-0.7482-0.3326-1.4963-0.5613-2.2239c-0.187-0.6028-0.7067-1.4341-0.7898-1.8705
		c-0.6234,0-3.6995,3.3671-4.0112,4.0114c-0.9978,1.9952,0.7482,2.9929,1.4341,4.5309c0.873,1.9745,0.8522,6.256,3.2214,7.025
		c1.1432,0.3741,1.6836-0.4573,2.9307-0.7898c0.7274-0.187,1.1848-0.187,1.2886-1.0807c0.1248-0.8107-0.2493-2.6604-0.7065-3.3671
		l-0.7275-2.0784C313.5863,117.4716,313.1082,116.2454,312.6095,114.6657z"/>
	<path d="M342.2892,149.2714c0.7274,0.561,1.7874,0.6858,2.7227,0.8521c0.8105,0.1455,3.5957-0.0415,4.0114,0.291l1.351-1.1431
		c0.5404-3.762,3.4709-5.3,3.3047-9.2698c-0.0209-0.478-0.104-3.0762-1.0184-2.7228c-0.8522,0.3324-1.0184,1.3093-1.7875,1.7875
		c-0.7689,0.4779-1.6211,0.9976-2.3694,1.5796c-0.7898,0.6235-4.4893,1.4756-5.5701,1.5796
		c-1.642,0.1663-3.3669,0.0208-3.0137,2.0784C340.0653,145.1977,341.6032,148.7518,342.2892,149.2714z"/>
	<path d="M240.9043,290.6238c-1.0184,0.2078-1.1224,0.3118-1.933,0.8729c-0.8521,0.582-2.9929,1.0808-3.4502,2.0784
		c-0.5195,1.1641,3.4087,0,4.0115-0.2909l1.6626,0.4364c1.1224-0.7065,3.1801-0.9976,4.5103-1.0807
		c0.6443-0.0416,2.0784-0.3326,2.5771-0.7067c0.291-0.2285,0.665-0.7275,0.9977-0.8729v-0.291
		c-1.2469,0-2.8682-0.0209-4.0736-0.1455C243.6893,290.4783,242.3176,290.3537,240.9043,290.6238z"/>
	<path d="M127.3399,329.1159c1.4548-0.9146,0.6028-2.0369,1.2262-3.0762c0.4573-0.7898,1.0184-1.1639,1.7875-1.6627
		c1.0184-0.6652,4.0945-1.5381,4.4478-2.8683c0.1248-0.4988-1.3093-0.2909-1.6626-0.2909
		c-2.0367,0.0001-3.4501-0.3739-5.4453-0.1454c-2.12,0.2495-4.7389,4.0945-6.5056,5.4663l0.2079,1.725
		c0.5612,0.2079,1.0392,0.7067,1.642,0.9353c0.5403,0.1871,1.2054,0.0624,1.7251,0.2078
		C125.677,329.6769,126.5293,329.6354,127.3399,329.1159z"/>
	<path d="M1017.7511,507.9631c-2.7019-0.7067-9.8723-4.8219-10.1011-7.8979c-0.187-2.6812-4.427-4.6973-5.7156-7.0251
		c-2.9307-5.2998-6.4846-8.1266-11.6182-10.7039c-4.4688-2.2446-7.2329-6.8379-11.1821-9.4775
		c-2.4109-1.6211-5.4038-0.3948-7.7314-2.0782c-3.2424-2.3695,0.9768-6.7549,2.0784-9.2697
		c2.0991-4.7804-1.9121-12.0756-0.0625-15.4427c1.2471-2.2654,4.9258-3.8867,7.0874-5.2998c1.4966-0.9978,4.24-1.0601,5.1545-2.7435
		c0.4988-0.8937,1.4756-2.3901,2.3694-2.9305c1.6418-1.0186,5.4871-4.4271,6.7341-5.8196
		c2.9512-3.3254,4.5933-14.0499,4.5933-18.6017c0-2.7435-4.4688-8.2928,0.27-10.4128c3.3047-1.455,2.1824-2.2239,3.3047-5.1544
		c0.9976-2.6188,3.0969-3.5957,4.24-6.7549l-1.8081-1.9329c-4.1155-0.5195-2.1824-5.4454-2.7229-8.2721
		c-0.665-3.4709-0.9143-7.0665-1.6418-10.5375c-0.6235-2.9722-2.2449-5.9443-2.5774-8.9788c0-1.8291,0.4783-4.8219-0.4985-6.3184
		c-1.1433-1.7043-2.0786-2.8267-2.0786-5.0298c0-4.51-3.1174-4.4063-3.7412-8.4797c-0.1245-0.8938-1.6211-5.3624-1.4963-5.7366
		c0.4573-1.3301,1.5173-1.8912,1.4341-3.5125l-0.2078-4.531c-0.2285-4.5309-4.614-6.3806-4.3022-9.9139l-0.7483-9.4152
		c-0.2285-0.0208-0.4365-0.0416-0.6443-0.0416c-0.208,0-0.374,0.0209-0.5405,0.0624c-7.1497,1.6003,0.686-6.0691,2.0786-7.7526
		c1.3093-1.6003-2.2864-4.0529-3.2217-3.8035c-1.3093,0.3325-4.2607,2.785-5.6741,3.5748
		c-1.9744,1.1223-9.7893,1.0393-11.7429-0.2078c-2.0576-1.2886-12.0964-6.3184-14.1123-5.5286
		c-0.582-1.351-5.8198-4.4479-7.3784-5.4454c-2.8892-1.8705-3.4917-3.3878-5.0923-6.0482
		c-0.9976-1.6418-3.3669-1.3717-4.8633-1.9951c-1.6006-0.6859-0.9146-4.7804-0.7898-6.2561
		c0.0208-0.4156,5.8403-1.0598,4.6555-4.3022c-0.6858-1.8083,0.9771-2.0161,2.1409-2.9514
		c0.7898-0.6235,3.6787-1.9952,3.1592-3.3047c-0.582-1.4548-1.5173-3.658-3.3669-4.3646c-2.3901-0.9352-2.8892-3.076-3.8035-5.4662
		c-1.4966-3.5332-7.7734-3.0553-8.0227-6.0273c-5.0505-2.1616,1.9121-8.5632,2.8682-11.9302
		c1.7874-6.256-2.9099-8.563-6.3809-12.3457c-2.0784-2.2446-2.9929-7.4199-5.092-6.0897
		c-6.6509,4.1776-11.3064,4.9674-18.7681,7.4615c-5.6323,1.8912-2.0784,4.6971-3.3669,8.5422c-4.718,0-6.8589-3.575-7.3784-7.7524
		c-0.4365-3.5125-9.4983-5.2377-4.4478-8.1058c-0.0208-0.1871-0.0415-0.2079-0.0623-0.3741
		c-1.1018-0.2078-1.4133-1.6003-2.6604-1.1431c-0.6445,0.2285-4.0945,1.6418-4.3647,1.1431c-1.7458,0-0.5195-4.0736-0.7898-5.0297
		c-0.4363-1.5172-2.5771-4.7386-3.658-5.9442c0-5.1543-7.5654-2.5771-10.2466-4.6764l-8.937-6.9626
		c-2.4111-1.8705-6.5886,3.7826-9.6023,4.4479c-2.4316,0.5403-5.0505-6.0275-1.2888-6.0275c2.5774,0,2.7644,0.0209,2.9307-2.2239
		c0.1248-1.8499,1.4133-3.1384,1.2886-5.1752c-0.1663-2.5981-0.2285-3.9282,1.0808-6.3807c2.4941-4.7595-0.4573-2.972-4.157-5.0297
		c-3.4087-1.8914-1.9329-5.5078-1.9329-8.48c-1.5173,0-4.7595,0.291-6.1729,0.7275c-8.854,0-6.6924,11.7637-13.385,14.0085
		c-8.5215,2.8265-2.8474-7.4823-11.9092-4.1776c-1.3511,0.4988-4.7598-5.2168-5.009-6.4639c-1.1431,0-1.8083,0.6028-2.7227,0.7274
		c-1.8083,6.36-12.6782,6.1521-14.8398,10.1218c-1.4341,2.6812-2.9722,1.7875-5.1545,3.0968
		c-2.7642,1.6627-1.3511,5.9235-4.8633,7.5238c-3.1384,1.4548-6.0068,5.6948-2.5151,7.9812
		c6.2771,4.1152-3.3254,2.3486-5.5076,0.4988c-2.6189-2.224-3.554-8.8956-0.9978-11.847
		c5.7988-6.7133,2.0994-14.5072,14.2581-11.639c1.2056,0.291,4.427-1.9537,6.2146-2.3694c3.928-0.873,0.1455-3.1384,2.9512-4.3647
		c1.4756-0.665,4.5518-2.785,6.1521-2.4524c0.5198,0.1039,2.6189,1.9951,2.8682,1.7874c8.2512-6.3599,5.3416-0.6443,15.0476-0.6443
		c3.2424,0,5.5078-2.5564,8.6047-1.2886c3.5332,1.4548,7.2952-3.866,4.3022-3.866h-13.0522c-7.0459,0-30.9475,1.4135-32.4441-7.6899
		h-0.1455c-2.1616,6.4639-3.575,12.699-8.8955,18.0198c-5.7781,5.778-6.3184,14.4866-12.8862,19.8904
		c-1.5588,3.7411-10.7246,6.2976-14.1123,9.4775c-3.7205,3.4917-6.2354,9.4983-8.8955,13.4888l0.083,0.1455
		c6.3391,0-0.1873,3.8035-0.9353,5.9028c-0.291,0.8105-0.8105,4.5933-0.9978,4.5933c-0.8313-3.3047-1.0601-11.0156-3.2422-11.5768
		c-6.6716-1.6627-13.6138,2.9098-20.0566,4.3231c-0.7483,0.1663,0.374,2.6396-0.6443,2.5149l-13.6136-1.8706
		c-10.309-1.4133-9.6647,0.8938-17.625,7.0251c-1.538,2.4109-1.2678,3.9697-0.4989,6.4639
		c0.6859,2.2446-2.1823,3.5748-3.2838,4.9673c-0.5612,0.6652-0.7483,3.4709-1.4342,4.6558
		c-1.1638,1.9744-3.3046,2.3901-5.1752,3.5125c-1.9745,1.2262-3.4293,6.7964-3.9282,8.9163
		c-0.8314,3.4918-0.4574,12.2627-5.0922,12.2627c-2.4316-1.2054-3.8242-2.0784-4.718-4.801
		c-0.769-2.2655-3.1799-0.0625-4.5309-1.1432c-0.8522-0.7067-0.9977-2.6812-2.0785-2.9514
		c-0.0206-0.1871,0.0416-0.1663-0.1455-0.2078c-0.0208-0.1871-0.0623-0.2494-0.0623-0.4365
		c-0.1039-0.0623-0.0624-0.0623-0.0624-0.2078l-0.0831-0.1455c-1.9121,0-3.3462,8.0018-7.8772,3.8035
		c-2.4316-2.2655-2.1199-9.2489-2.785-9.5607c-1.538-0.665-5.3831-1.8705-5.5909-4.0114
		c-9.9763-4.3024-22.3428,1.1848-30.8228,7.1705c-1.3925,0.9977-6.9834,3.0344-7.1497,2.5149c-1.7458,0-3.8035-4.5309-5.2375-4.7388
		c-1.0601-2.9514-5.2585-5.6533-6.5264-9.1865c-1.5796-4.3855,1.7251-6.6094,3.7412-10.3298
		c0.374-0.7274,1.2678-5.1752,1.7874-5.1752c0.8729,2.6604,4.5518,4.0114,6.8796,4.0114c4.5309,0,4.801-5.5908,7.6692-8.1057
		l17.7498-13.281c1.7458-1.2887-1.6836-19.1838-1.7875-22.1143c-0.2494-7.0459-3.1801-6.9211,2.016-10.1843
		c7.0251-4.4478,1.3303-8.272-2.0784-5.1128c-7.7939,7.2119-13.946-0.395-21.7817,4.7386
		c-3.741,2.4525-8.5006,9.8102-12.5327,10.2673c-7.9604,0.9144-10.1011-2.3695-15.2764-7.1705
		c-5.9026-5.4871-10.4543-3.8035-16.9805-7.6902l-17.7705-9.9139c-3.8866-2.1615-13.8005,7.0665-15.0269,10.8492
		c-0.3949,1.2056-4.9467,14.2371-4.9467,9.2698c0-2.8059-2.1615-3.6372-2.1615-5.2377c0-2.6604,9.9973-8.8125,3.1592-12.3666
		c-3.9905-2.0576,3.9075-3.4293,2.3694-6.8171c-4.5933-10.0803-22.4468-4.2191-29.5965-0.6443
		c-7.1082,3.575-9.332-0.083-15.7544-3.3047c0.4781-2.4316,9.6647,1.9539,11.8054,0.6443
		c3.9905-2.3901,9.9556-6.9004,12.4705-10.6206c2.6603-2.4734,2.8682-6.3392,2.8682-9.7686c0-2.7227-1.6627-4.3439-1.5796-6.6094
		c0.1455-3.9073,4.6973-11.6807-2.9305-12.6367h-1.642c-3.0552,1.2263-4.1567,4.3231-5.3829,7.3368
		c-1.746,4.2607-4.7389,6.4847-8.4591,9.1034c-5.7572,4.0945-15.2139,11.2234-16.1908,18.1654
		c-0.2701,1.9745-4.4479,0.1246-5.1544-0.6443c-2.598-2.8059-4.6973-1.7043-8.2305-0.1455
		c-0.8107,0.3741-3.0137,2.3486-3.1592,2.1615c-0.5198-0.6858,0.187-3.845-0.9977-4.0112v-0.5197
		c4.1569,0,5.7572-1.9952,9.7477-1.9952c4.2607,0,7.8149-0.4573,10.7455-3.3877c0.9146-0.9146,4.1569-6.5262,4.4271-6.5262
		c2.0576,0.1663,2.4109,0.3325,4.2399-1.3717c1.3925-1.2887,3.0968-1.933,4.427-3.5125c2.5773-2.9929,9.3944-7.6902,9.7477-12.2003
		c0.3533-4.4479,3.3879-2.8059,5.9443-4.3024c0.7275-1.7251,3.3671-2.0784,2.5149-4.24c-1.0601-2.7019-3.4502-5.0297-4.8011-7.6069
		c-0.7067-1.351,0.0209-4.0737-0.7899-5.0298l-4.5724-5.4661c-4.0529-2.0161-2.0785,5.2998-2.0785,6.8171
		c-2.0369,0-4.9673,1.6418-6.8171,0.374c-2.12-1.4756-3.4709-4.0529-5.4456-5.5286c-4.427-3.3254-10.3296-3.949-15.1931-6.9626
		c-1.6626-1.0392-3.2838-0.3325-4.9465-0.9353c-5.5286-2.0369-2.9305-3.6787-2.9305-7.6901c-1.642,0-6.9418,4.0321-7.9603,5.3831
		c-2.4524,3.3047-6.3184,5.2792-8.9371,8.2513c-2.9928,3.3671-2.9098,0-1.4341-2.1407c-1.9952-1.7667-1.9121-5.6741-3.5126-5.6741
		c-0.2494,0-0.5403,0.0831-0.8728,0.2909c-3.1592,1.8706-3.2632,5.9858-5.6533,7.1082c-2.2864,1.0601-4.1152-1.6418-5.8818-0.4988
		c-2.2031,1.4133-2.3901-0.2078-3.0762-2.3069c-3.5957-10.8701-17.0222-11.4937-26.7283-11.9093
		c-4.1985-0.1871-4.3647-3.3256-7.4407-4.0945c-1.7043-0.5404-3.6788-0.1871-5.3832-0.7274c-1.4548-0.4573-2.4733-0.8105-3.9281,0
		c-2.7437,1.4963-4.0737,3.4293-5.6741-0.4365c-0.7898-1.9329-3.2009-1.4965-4.9259-1.4965c-3.8866,0-3.7203-0.665-5.3832,3.076
		c-0.8937,2.0369-6.3391-3.0344-7.8771-3.3669l-5.3832,0.2909c0,3.7826,1.3926,3.0345-0.291,5.7987
		c-0.2078,0.3534-0.4573,0.7483-0.769,1.2263c-1.1846,1.7666-0.187,3.0968,0,4.8843c0.3741,3.7203,5.5702,6.6718,6.651,10.496
		c0.9144,2.7435,7.7317,12.0963,3.076,13.6344c0.1248,0.4365,2.9929,1.9537,3.5957,2.307c0.8522,0.4781,2.2031,2.5149,2.5771,2.6395
		c0,6.0898-0.187,4.0945,4.718,4.0945c0.3118,1.9121,8.376,14.8191,4.4479,15.7959c0.0831,0.5404,2.3901,0.0416,2.8683,0
		c0.665-0.0415,1.8912-0.9352,2.2239-0.7065c0.3948,0.2701,2.4109,7.399,2.4941,8.2512c1.2262,0.3118,11.015,6.1726,7.9189,7.2328
		l-0.0002-0.0007c-0.291,0.1039-0.7275,0.1661-1.3094,0.1661c-5.9442,0-8.0226-1.1431-13.6136,2.3695
		c-3.6787,2.307-2.4731,5.2584-3.1592,8.7501c3.2632,0,9.2698,2.5564,11.6807,0.1455c2.6189-2.6189,3.2216-7.7732,5.5078-10.2673
		c0.3948-0.4364,0.748-0.6649,1.0391-0.7689l0.0002,0.0006c1.5588-0.4573,1.933,2.9099,2.6189,3.9282
		c3.0137,4.5309,4.7388,5.7988-0.4988,6.6716c-2.6396,0.4573-4.1361,2.4109-5.7365,4.5933
		c-4.2192,5.7573-8.4799,11.2443-15.692,5.8196c-2.0369-1.538-22.1974,6.2146-22.1974,9.4775l6.734-0.6443
		c3.7412-0.3533,0.3534,4.531-2.1615,4.531c-9.6854,0-6.3392,8.0227-1.7043,13.198c1.3925,1.5796,3.1801,1.9536,5.009,2.8889
		c2.0576,1.0184,0.9561-1.9746,1.2054-3.2423c0.4365-2.0785,5.2998-1.1223,7.1705-2.2239c2.9928,0.6442,2.7435,2.3278,6.2975,1.5795
		c1.1641-0.2493,3.6788-2.1199,4.3855-2.9512c2.9722-3.5126,2.7643,5.0504,7.1497,1.5796c1.1848-0.9146,4.5933-4.3024,5.8196-4.3024
		c-3.845,3.8451-0.769,9.3529-8.3967,11.7015c-0.6859,0.2078-4.9259,0.1663-5.0713,0.4988
		c-0.6652,1.3716,0.3118,4.7388-0.2288,6.6924c-0.9976,3.6372-4.032,4.136-2.7227,8.6045c0.9977,3.4087,2.6812,7.5032,5.1753,9.7063
		c1.4133,1.2678,7.6069-2.9514,10.3712-3.1592c3.6165-0.291,1.5172,0.7689,3.0138,3.5125l2.5771,4.7388
		c0,2.9307,2.4109,11.4937,0.6443,13.4889c-2.9305,3.3256-8.6877,1.2262-11.9509-1.351c-1.5381-1.2262-5.4246,0.3534-7.6692,0.3534
		c-0.4158,1.6212,2.1823,6.5677,3.2838,7.6901c2.7643,2.7435,2.224,5.2584,3.8035,8.6046
		c2.0576,4.3439,8.9371,15.5673,13.759,9.9763c1.7043-1.9952,11.7638,2.972,15.0477,1.8082
		c2.8059-1.1431,9.7062,0.291,12.4705,1.1432c3.5957,1.1016,7.0251,3.8035,9.5192,6.3184
		c5.8195,5.8402,5.3623,15.4633,11.0988,20.9711l3.2214,3.0762c1.3926,0,2.3486,0.1455,3.658,0.3533
		c3.0345,1.9121,4.7598,10.9531,6.3807,14.4449c1.8705,4.0114,3.1592,7.5238,6.6716,10.4127
		c6.734,5.5494,14.3202,7.6694,23.0703,7.6694c2.2863,0,4.5725,1.3717,7.0875,1.3717c2.1823,0,2.2861,1.9952,1.9329,4.4479
		c-3.2631-1.6212-2.5149-4.1361-6.7341-2.4319c-3.2837,1.3096-6.9834-0.9561-10.5376-1.6626
		c-6.7131-1.3303-17.9781-6.838-22.6338-11.847c-2.8474-3.0553-6.1936-9.4359-5.5077-13.8629
		c-0.5404-5.882-7.8148-6.547-10.6207-10.8286c-2.6187-4.0112-6.4014-9.8932-8.2305-14.2162
		c-0.9146-2.1615-3.5332-6.9003-5.4454-8.3344c-2.8682-2.1409-9.5192-2.2031-13.1771-1.5797
		c-6.3391,0.3326-14.9021-0.2494-14.9021,7.0458c-2.6604,0-3.8452-3.0759-7.2537-1.8705
		c-3.4294,1.2054-7.9396,1.4965-11.5977,1.2262c-9.9971-0.7897-14.4865-1.2262-21.283-9.2695
		c-10.101-11.9717-17.2715,21.7401-19.3499,27.4349c-3.6165,5.4246-4.9883,16.2323-0.0624,20.2438
		c1.0184,0.8313-0.8314,5.1128,0.0624,5.674c2.8265,1.725,3.076,3.7411,4.7388,6.4639c1.3926,2.2654,1.4133,8.8956-2.2861,8.8956
		c0-0.291,0.083-0.5197,0.1454-0.7898c0.2494,0,1.4133-1.3718,1.642-1.3718c0-3.6995-7.2537-5.2583-10.1011-4.801
		c-6.8586,0-14.5281-13.3019-19.7864-12.0757c-4.24,1.0186-9.6439,16.2948-6.8796,18.1654
		c0.9353,0.6234,8.0227,0.7274,9.4568,0.7274c0.9353,6.5055,0.2285,17.5417-6.0066,21.761
		c-7.5238,5.0713-9.8516-11.9092-16.9806-8.4799c-2.4109,1.1639-1.5588,0.7274-3.2216-1.2262
		c-1.4548-1.7043-3.2214-3.6165-4.0112-5.8196c-1.1432-3.0968,0.5819-2.7019,3.4293-3.2839
		c3.4293-0.7065,6.4431-1.1223,7.8148-4.6763c3.0762-9.249-3.4086-11.4521-6.4431-19.163
		c-1.4341-3.6165,0.3533-3.4918-3.4502-2.9514c-3.4709,0.4988-2.6602-2.0785-3.7202-4.6556
		c-1.2056-2.972,0.9976-8.1265-2.4318-8.1265c-4.8635,0-12.3458-1.6836-17.1261-0.208c-8.459,2.5981-19.2253,1.5588-27.2896,4.5934
		c-7.0665,1.1847-13.946,5.0922-21.7192,3.1592c-8.1267-2.0369-9.8726-3.076-18.207,0.0624
		c-4.2607,1.6211-24.3174,18.8303-18.1237,20.2644c2.1407,0.478,1.3717,4.5103,3.3671,4.5103
		c0.0415,0.2078,0.0415,0.2078,0.2285,0.2078c0,4.9465-6.6509,3.949-8.6045,5.4662c-4.0529,3.1383-5.5286,11.9301-5.092,17.3131
		c0,3.8242-0.3326,7.5447-1.5797,11.0571c-0.9352,2.6604,1.2887,4.1777,3.7411,4.6558c5.7365,1.1014,12.99,1.1431,19.0591,1.1431
		c5.1752,0,4.2607,0.291,7.8772,2.7434c-6.1313,0-1.9121,11.3274-8.0227,13.489l1.2886,4.3854l-0.2285,0.8522
		c0.1455,0.0415,2.3694,8.0435-1.9329,8.0435c-0.582,2.3901-1.8499,5.2584-1.8499,7.6902c0,2.7642,1.9329,4.3854,1.9329,6.6716
		c0,8.9785,3.575,17.6041,0,26.1255c-3.554,8.459-9.415,15.6504-12.5327,23.9225c-3.7827,9.9348-3.2424,23.4652-3.2424,34.4601
		c-0.2701,3.1176-4.2399,7.3992-5.7988,2.7227c-0.1454,0-0.1663-0.0208-0.2909,0.0833c-0.5612-0.291-5.1337,0.8728-6.734,0.4988
		c-2.6604-0.6443-4.1984-2.8267-7.0043-2.3694c-3.4502,0.5613-7.0665,0.1663-10.5375-0.4365c-1.2263-0.2078-9.623-0.7689-9.8102,0
		c-0.6028,0.1455,0.3949,2.2864,0.5612,2.6604c0.874,1.958,0.9939,4.1937,0.7886,6.2899h897.5354
		C1023.0167,510.7513,1020.0375,508.5588,1017.7511,507.9631z"/>
	<path d="M189.526,300.8913c-2.9719-0.0001-5.8402-0.0833-8.7292,0.083c-1.4757,0.0831-2.5771,1.0601-4.0114,1.3718l-0.2286,0.561
		c0.6443,0.0417,0.9768,0.4365,1.642,0.4365c0.4573,0,0.665-0.1455,1.0807-0.1455c0.7483,0,1.1433-0.291,1.8706-0.291
		c1.2678,0,2.7227-0.6858,3.9282-0.9352c2.5564-0.4781,5.9442,1.4133,8.2512-0.3533
		C195.4702,299.9975,190.3158,300.8913,189.526,300.8913z"/>
	<path d="M160.5115,308.1448c-2.4941,0.2079-5.009,0.4781-7.3783,1.1639c-1.4341,0.4158-3.866,0.9977-5.3831,0.4158l-0.5613,1.3093
		c1.2263-0.2909,3.0969,0,4.5103-0.2285c1.3301-0.2079,2.4524-0.3325,3.7202-0.6443c2.9099-0.686,5.6741-0.7068,8.8956-0.7068
		c0.7898,0,1.6003-0.4365,2.3695-0.4365c-0.0625-0.3325-2.1201-0.4364-2.5981-0.4988
		C162.9432,308.3527,161.6754,308.0617,160.5115,308.1448z"/>
	<path d="M643.4714,167.3535c2.494,0,4.3439,1.2886,6.734,1.2886c0.8729-2.5771-8.085-17.6249-10.4543-19.1006
		c-3.0345-1.8705-3.9075-3.6165-7.9397-3.8657c-2.2446-0.1455-10.1218-2.7228-10.6206-1.6628
		c-1.0601,2.3279-2.0784,3.4709-3.575,5.4662c-1.725,2.307,2.2864,5.9442,0.6444,6.5262c-1.2262,0.4364-2.3694,0.5403-3.5126,0.8729
		c0,1.7458,1.5381,3.1592,1.8706,4.8011c3.0137,0,3.2629-2.5149,6.734-2.5149c3.3878,0,3.5748,5.3623,3.5748,8.1265l0.208,1.7876
		c2.39,0,5.2168-0.0209,7.5238-0.3534c1.9745-0.2909-0.3119-1.8082,0.1455-2.598
		C635.5319,164.9217,641.4346,167.3535,643.4714,167.3535z"/>
	<path d="M888.017,119.6747c3.3877-0.3118,3.5125-1.933,3.5125-5.4454c-5.7156,0-10.7871,2.307-16.2117,3.2216
		c-2.1406,0.374-3.9905,1.4548-5.7988,2.8682c-0.9561,0.769-2.6396,1.3302-1.5796,2.9514c0.3325,0.4988,8.4175-4.3022,6.4639,2.0784
		c-0.8105,2.5981-5.5908,12.2834-0.083,11.6392c2.6812-0.3118,7.4822-8.9788,9.3943-8.9788c0,1.8914,3.3462,2.7228,2.3694,4.7388
		c-0.9976,2.0161-0.2078,2.7644,1.9954,2.8682c3.0969,0.1455,3.845,3.5957,6.2351,3.5957c2.5981,0,3.0762-2.9722,5.0923-3.3669
		c-0.2285-0.6443-4.3232,0.1248-5.1545-0.3741c-1.8706-1.0602-4.9675-0.9147-6.1729-3.0138l-2.9304-5.0922l0.7065-2.0785
		C884.8993,123.0417,885.5228,119.924,888.017,119.6747z"/>
	<path d="M941.1617,246.9775c1.4548-2.1824,1.1433-1.4133,3.2424-2.2239c2.0366-0.7898,2.8057-4.5518,1.8496-6.1729
		c-1.9536-3.3047,1.5381-3.3672,3.949-3.3672c0.3743,0,2.3694,0.8522,2.4941,0.4158c-1.3301-0.0002-6.9419-4.531-8.1682-5.5911
		c-2.7434-2.3901-6.6924-6.0481-8.2927-9.4152c-0.5613-1.1432-2.9304-6.7964-3.7412-6.1729
		c-1.1638,0.9144-2.8474,0.8314-3.866,1.4342c-0.9143,0.5403,0.5198,3.3462,0.6445,3.8035
		c0.9976,3.4502,3.8242,5.6324,4.6555,9.2073c1.5796,6.7133-3.8657,8.667-3.8657,14.4242c0,2.8265,3.1384-0.291,4.1567-1.0807
		c2.3901-1.8499,3.2007-4.3024,6.7341-4.3024l0.9353-0.9353c4.6555-4.0944-0.4988,6.4015-1.4343,7.8981
		C939.4784,246.4371,939.7277,249.1598,941.1617,246.9775z"/>
	<path d="M920.1073,187.6801c-0.8936,0.8105-3.3047,0.7483-3.3047,2.1406c0,2.3904,4.6763-0.4573,5.5286,0.9353
		c2.9929,4.8843,0.2493-3.2216,3.5125-5.7988c4.2815-3.4293-4.8428-14.7981-8.3967-15.5879
		c-3.6992-0.8312-4.2397,2.0577-6.1519-2.3069l-3.8035-8.6877l-0.291-2.4316c0.9353-4.3855,6.0898-7.9604,9.8308-9.9141
		c4.4063-2.2863,3.2009-8.0851,0.0625-11.4105c-1.6421-1.7458-6.2769-0.6652-8.667-1.4342
		c-3.2009-1.0184-6.7966,4.3855-9.3945,5.8196c-0.5195,0.291,1.8914,8.1682,0.9353,10.8286
		c-0.9561,2.7019,3.2217,4.0944,4.9468,5.6741c1.1846,1.0808-0.4158,2.6396-0.6445,3.8035
		c-0.291,1.5796,1.1433,2.5771,0.3535,4.6764c-0.8315,2.2654-6.4639,1.5172-7.0044-0.4364
		c-0.3533-1.2471,0.8938-4.3232,0.5613-4.7389c-0.9561-1.1847-1.7874-1.4133-1.2056-3.3047
		c0.3743-1.2471,2.7437-3.0553,0.1248-2.9305c-1.2471,0.0415-3.845,2.8889-4.5725,2.4316
		c-1.9121-1.1638,2.3279-3.2422-1.6418-4.4478c-2.6396-0.8105-0.1873-3.8451-1.9539-6.1106c-1.4338-1.5588-2.3694,0.769-4.718,0.873
		c-3.9697,0.1663-2.6602,0.3949-1.4963-2.7435c0.6443-1.7458,1.0183-1.5588-0.7273-1.9952c-0.3325-0.083,0.083-5.7571-1.2263-3.949
		c-0.4988,0.7068-0.8938,1.8083-1.7876,1.933c-0.4155,0.0624-2.5979,0.3118-2.6394,0.6443c2.3691,0.478,0.9976,6.443-0.2288,7.4615
		c-0.6858,0.6028-1.4548-3.7827-1.9329-4.5103c-1.2263-1.9329-3.0137-3.0137-5.5078-2.2239
		c-2.8059,0.8522-4.6348,0.6443-7.6069,0.6443c0,1.0186-0.0833,6.2354,0.5195,6.5262c1.0186,0.5197,5.5701-0.7067,5.8611,0.7274
		c0.9561,4.6558,2.6187,3.5957,5.092,6.7341c1.0808,1.3718-4.7803,2.4941-5.4453,2.6604c-1.2056,0.3118-1.7668,1.6003-2.9307,2.0784
		c-2.7227,1.1223-3.845,0.3533-2.3694,4.24c0.6028,1.5796,4.8635-0.6443,6.3806,1.7874c1.5173,3.7827,3.2217-0.0208,1.2888,4.0945
		c-0.7068,1.5173,2.0159,2.1201,1.0808,4.6765c-1.3303,3.5748-13.198-2.9929-13.198,3.8035c0,2.5979-1.4966,5.4038-1.4966,8.1888
		c0,0.3949,3.679-0.3533,4.801-0.2909c1.6421,0.083-0.083,2.0784-0.083,2.5146c-0.2703,0-0.6443,0.4365-0.9976,0.4365
		c-0.7693,3.866,2.1406,1.0808,4.0942,0.9146c0.582,0,6.1313,5.3207,7.5239,6.0481c4.4685,2.3486,2.7644,0.7483,7.1497-0.4365
		c6.5056-1.7666-3.8242,5.8197,3.7412,5.8197c2.0369,0,3.8867,2.7227,5.0713,2.7227c1.3303,0,2.3694-4.5101,2.3694-5.6741
		c-1.1641,0-8.2305,2.6395-6.5886-1.2887c1.9124-4.5725,0.582-3.8866,4.718-3.8866c1.5173,0,9.0205-11.7015,12.1172-12.2626
		c2.1616-0.395,3.6372,0.6028,6.2976-0.291c2.4524-0.8105,3.3047-2.8059,5.2375,0c1.2471,1.7874,2.8682,2.2861,3.8035-0.873
		c1.1431-3.9072,1.2471-1.8496,3.1384-0.9976c2.4316,1.0808,1.5588-0.1871,0.7275,2.5149
		C918.1119,183.835,925.0953,183.0869,920.1073,187.6801z"/>
	<path d="M936.1527,274.5576c3.6582,0.9144,8.1265,5.778,10.9741,0.4988c0.4365-0.8313,3.1177-3.6996,3.2839-1.3718
		c0.27,3.7412,2.6604,3.6788,6.1729,1.8083c3.2007-1.7251,2.7849-3.5957,6.8796-3.4502l12.2417,0.4156
		c2.6187,0.1039,1.1223,5.3832,5.1543,5.7572c0.6235,0.1455,1.1226,0.2494,1.5588,0.3534
		c-0.1453-1.2471-1.6418-4.4479-1.7041-5.7365c-0.0417-0.9351-0.2495-2.0159-0.4158-2.9512
		c-0.5405-2.8059-1.7043-2.8474-4.0945-4.1567c-1.5796-0.873,1.9954-1.9954,2.4109-2.2031l2.9722-2.2449
		c-0.8521-0.187-1.9121-0.083-2.8474-0.1663c-0.9353-0.0623-1.7251-0.3118-2.0369-1.2053
		c-0.6028-1.7876-0.6028-3.1177-1.7251-4.7389c-1.4963-2.2031-4.9465-4.3231-6.8589-6.7549l-7.4614-8.5424
		c-0.7065-0.8105-4.8633-4.8843-6.0896-4.0112c-0.1663,0.1039,1.4341,5.2583,1.4341,6.0897c0,3.8451,2.1199-0.0208,3.575,1.2262
		c3.2837,2.8059,0.582,11.2443,0.582,14.7152c-1.8291,0-5.6326-3.9073-6.7341-0.8522c-0.208,0.5404-0.0833,1.351-0.4365,1.933
		c-1.4341,2.4525-2.4316-2.224-2.4316-3.5957c1.9536-0.769,1.4548-4.0114,0.3533-5.3831c-0.686-0.8522-2.8892-0.2079-4.0737-0.2079
		c-4.0527,0-1.0391,6.6509,0.6443,8.5422c3.9075,4.3855,0.2703,8.958-2.4316,11.7847
		C943.3856,271.8141,936.1527,272.1674,936.1527,274.5576z"/>
	<path d="M340.1275,103.8166c-0.7067-2.7644-2.411-3.7205-5.009-4.0945l-2.3694,0.291c-2.2446,1.0391-4.7388,0.4364-7.0874,0.4364
		c-1.1431,0-5.3206-0.5612-4.9465,1.351c0.4365,2.3279-1.4133,3.076-1.9329,5.1129c-0.6443,2.4733,1.4133,2.6188,3.1592,3.1383
		c2.8474,0.8938,3.5125,4.0945,6.8586,3.1592c2.3901-0.6443,4.7595,0.2286,7.1082,0.2286c2.3901,0,3.0553-1.3094,3.4294-3.5956
		C339.7118,107.5992,340.7511,106.2067,340.1275,103.8166z"/>
	<path d="M336.9684,134.8264l-0.769-1.1432c-0.6028,0.1455-0.7898,0.291-1.4341,0.291c-0.2288,0-0.4365,0-0.6443,0
		c-0.395-0.0209-0.6652-0.1871-1.0186-0.2286c-0.291-0.0208-1.1223-0.1248-1.1431,0.2286c-0.0625,0.9352,0.6028,1.4757,1.2886,1.933
		c0.2286,0.1455,0.4573,0.2493,0.7275,0.2909c0.2078,0.0416,0.478,0.1455,0.7898,0.2079c0.3948,0.083,0.8521,0.5403,1.2053,0.7274
		c0.5197,0.2701,1.5797,1.1639,1.8706,0.2078c0.1455-0.5195,0.1039-1.0807-0.1455-1.5796
		C337.5919,135.5539,337.1969,134.8264,336.9684,134.8264z"/>
	<path d="M323.999,157.086c-0.5197,0.4364-1.1016,1.351-1.0601,2.0785c0.0416,0.6443,0.9769,1.4133,1.351,1.8705
		c0.2285,0.2701,0.4988,0.2494,0.7274,0.5819c0.3534,0.5197,1.0599,2.2448,1.4342,2.4318c0.478,0.2494,1.0184,0.4988,1.5796,0.1455
		c0.478-0.291,0.9977-1.1016,0.9977-1.642l-0.5819-2.5149c-0.2494-0.3531-0.4573-0.5818-0.7067-0.9352
		c-0.478-0.6442-1.0599-1.2887-1.4342-1.7875c-0.2909-0.3948-0.7065-0.8729-1.2886-0.8729
		C324.3731,156.4417,324.3524,156.7951,323.999,157.086z"/>
	<path d="M337.8412,121.9817c-0.27,0.0416-0.3533,0.0624-0.5818,0.0624c-0.1248,0-0.3949-0.0208-0.4989,0
		c-0.3324,0.1248-0.4156,0.1039-0.7897,0.1455c-0.395,0.0623-0.7483,0.083-1.1433,0.083c-0.7482,0-0.7273,0.2495-0.8521,0.8523
		c-0.104,0.4364-0.2703,1.0391,0.0624,1.3717c0.1246,0.1039,0.8522,0.3741,1.0807,0.3533c0.4158-0.0416,0.8314-0.2078,1.2056-0.4364
		c0.2493-0.1248,0.5195-0.2495,0.7274-0.4158c0.7274-0.6028,1.2678-0.7898,2.2239-0.7898L337.8412,121.9817z"/>
	<path fill="#DE122B" d="M770.9398,983.4c-1.5173-2.4318-2.9307-2.5773-5.2998-3.4294c-0.7485-0.2701-1.4136-2.1824-2.5151-2.8889
		c-2.8889-1.8291-3.741,0.665-4.801-3.8036c-0.3948-2.7434-6.7964-3.1383-6.7964-8.0433c0-4.427,2.5149-5.3416,0.6443-9.3944
		c-1.3303-2.8683-1.5796-4.1776-4.7388-5.4662c-1.0808-0.4365-0.8105-1.7875-1.4966-2.6396
		c-0.9976-1.2262-3.1177-2.3278-4.51-3.0968c-6.6094-3.6581,3.741-3.9906,2.5771-6.3184c-0.7275-1.4548-1.9536-4.2192-1.7874-5.9651
		c0.0623-0.8522,6.0063-1.2886,6.6509-0.6443c0.6025,0.6028,0.9768,2.3695,1.8706,2.598c0.3533,1.4965,1.0601,3.2216,1.0601,5.0922
		c1.1431,0.2909,2.2239,0.9561,3.5122,1.1431c6.5056,0,4.0322,12.8446,6.0276,15.0061c0.8105,0.8937,4.4478,1.5796,4.4478-0.291
		c2.9514-0.7274,0-4.1982,0-4.7388c2.7434-0.6858,0.9978-6.9211,1.6418-9.3944c1.0601-4.0114,8.5632-3.6996,7.4409-8.189
		c-1.4341-5.778,3.5122,0.2079,3.5122-3.658c0-3.9073,7.4617-1.9329,6.7341-6.1729c-0.2495-1.4548-0.2703-3.4709,1.2263-4.3854
		c3.2632-1.9952,12.7197-4.8219,15.1931-3.5957c0.2495,0.1248,7.4407,0.2494,7.8149-0.291
		c0.9561-1.3717,3.2007-3.2007,4.8633-3.7203c3.3047-1.0183,7.6694-1.8912,7.6694-4.3022c4.4895,0,15.6086,13.3225,18.8303,5.0089
		c1.7043-1.2678,5.2998-2.2239,5.1753-4.7386c-0.083-1.2679-0.9976-5.0507,0-5.5287l11.3066-5.2999
		c1.6418-0.769,7.4614,3.9282,8.667,0.1455l3.741-11.639c0.1458-0.0416,0.1248-0.3119,0.2703-0.3534
		c0-5.1129,4.9675,0.5612,5.3831,0.5612c5.6741,0,2.5981-4.7595,3.8035-5.1544c1.4758-0.4989,4.3022-0.7274,5.2168-1.5173
		c2.0994-1.7666-1.7456-7.5031,0.9978-6.3184c0.187,1.2679,7.1082,7.6902,8.2512,7.6902c2.4316,0,6.1938-4.9258,7.7317-6.8171
		c1.1846-1.4341-0.9353-2.0369,2.1616-4.531c3.45-2.785-2.3071-4.5101,2.9929-7.2535c3.1382-1.5588,6.7964,1.538,8.958-2.2864
		c2.1821-3.8866,3.1592,0.7067,6.0896,0.7067c2.5774,0,2.5774-1.4965,4.0112-1.7874c0.6235-3.0969,9.6855,0.2909,11.0364,0.2909
		c1.8499,0,8.3137-3.3254,8.397-4.4685c0.187-3.1385-2.0786-2.889-0.3743-6.3184c1.7043-3.4087,7.2329,1.2054,7.2329-2.9305
		c0-6.069,9.519,1.9121,10.6206-2.5149c1.0601-0.1664,1.7458,0.6443,2.9929,0.6443c1.0186-3.0968,6.7964-5.6324,9.8311-6.8171
		c3.4917-0.873,7.3574-2.8059,8.667-6.1729c1.6001-4.1569,6.2559,0.665,9.6646-1.1639c1.5378-0.8105,6.9419-1.933,7.4614-2.8683
		c1.5796-2.8682,2.2861-7.6901-2.3694-6.8795c-2.4734,0.4158-3.2217-1.9536-5.4456-2.3693
		c-4.2192-0.8107-0.9768-2.7643-0.1455-3.9491c1.2886-1.8705-2.2654-0.4156-2.5146-0.291c-2.2031,1.1641-4.8638-1.3508-4.5728-3.741
		c0.374-3.1592,1.6421-4.7804,1.6421-8.459c3.0137,0,6.1729,0.9352,9.1035,0.7897c4.7595-0.2494,2.0991,4.2192,6.7964,4.0114
		c2.1199-0.1039,3.6162-2.0161,5.4453-2.0161c0.665,0,1.6626,1.7458,2.3694,1.2888c1.6211-1.0393,0.5613-2.6396,1.2886-3.7205
		c2.1824,0.5404-1.3923,3.6996,3.0137,5.4454l5.4456,2.1615c0.9976,0.3949,2.6396,4.614,2.2239,5.5908
		c-0.6443,2.5564-4.0115,6.7758-4.0115,8.6254c1.9331,0.6444,2.3071,1.1224,4.8635,0.9977
		c1.5173-0.0623,3.9697-1.1223,4.4478-2.5771c0.2703,0,0.291,0.083,0.4988,0.1455c0.4158,1.6835,1.4551,2.0992,0.499,4.0114
		c-0.9355,1.8705-1.0808,1.7251-1.0808,4.1776c0,1.2887-1.1016,2.4318-1.7043,3.5125c-2.0369,3.575,9.3113,3.1801,10.4543,6.4639
		c0.665,1.9537,1.1641,1.0184,2.4319,1.7875c1.7666-1.3302,4.988-0.2079,6.8794-0.2079c0.187-0.7898,1.5796-3.8451,2.0784-4.822
		l1.7253-3.1591c-0.6238-0.6028-1.2266-1.1016-1.2266-1.8705c0-0.6235,0.4158-1.4133,1.5796-2.5773
		c1.1641-1.1639,6.6719-8.7709,6.9419-10.0386c0.5405-2.4109,0.79-3.0345,2.4526-4.8843
		c3.0552-3.4501,3.4709-11.4728,4.5103-15.7958c0.3948-1.6836,2.3276-1.933,2.6394-3.8867
		c0.2078-1.2263-0.2078-2.3279-0.2703-3.5126c-0.166-2.6395,0.9353-5.965,1.9331-8.3969
		c1.7666-4.3646,0.8936-10.9739,3.1384-15.0891c0.8521-1.5173,1.8706-1.7043,1.8706-3.8035
		c0.0002-4.6985-2.6602-8.4603-5.2996-12.347c-0.9355-1.3717-2.6606-4.8843-2.5151-6.6093
		c0.2495-2.5566,1.6628-1.7667-0.3533-4.5103c-1.0808-1.4963,0.6443-2.2654,0.291-3.3878c-0.4988-1.559-1.0393-2.3901-0.291-4.0945
		c1.1638-2.5773-0.374-4.3855-1.2886-6.9626c-0.9768-2.7435-6.9211-4.1569-9.249-4.7389c-2.8889-0.7274-4.5725-2.0576-7.0042-3.658
		c-0.7275-0.478-0.7275-2.0991-1.3718-2.3694c-1.3718-0.5612-4.3855,0.208-5.6531-0.6443
		c-1.7876-1.1846-2.5149-2.7227-3.5127-4.5933c-2.6604-4.9465,2.4316-6.6716,4.9468-9.8308
		c1.2886-1.6418-1.2056-8.1057-1.6628-10.3505c-1.3718-6.9626-7.5032-9.1034-9.7268-15.5673
		c-0.8315-2.3486-2.0579-9.8101-4.3025-10.4128c-2.5149-0.6858-2.9719-1.9952-3.2214-4.8843
		c-0.2495-2.5149,9.415-11.2234,10.9531-13.7174c3.2217-5.2169,0.187-11.743,3.3047-15.8583
		c0.9561-1.2678-1.0391-3.3462,0.0625-4.4685c1.2053-1.2056,1.8496-2.8059,2.4316-4.3647c1.1223-2.9513,1.4133-5.7987,0.4158-7.9395
		c-1.5173-1.0186-2.3071-2.889-4.8428-3.4087c-3.575-0.7275-3.3879-5.5909-2.8059-8.2513c0.9146-4.2606,3.658-4.4063,0.7275-8.4799
		c-1.7043-2.3486,3.8242-3.762,3.6372-7.1082c-0.395-7.3577-12.1379-7.3368-15.8374-11.7014
		c-1.7043-2.0369-1.8706-8.7292-3.2839-11.7847c-0.873-1.8496,0.2908-3.8242-0.8523-6.0273
		c-1.3926-2.6396,0.1248-4.053,0.499-6.6716c0.6858-5.009,2.5771-2.7019,4.8633-5.8196c2.2446-3.0553,5.2793-8.1682,2.8059-11.265
		c-2.4939-3.1177,0.9561-7.5654,2.2864-10.5582c1.1846-2.7019-1.1848-2.3904-2.2241-5.0922
		c-0.2339-0.6086-0.6301-1.2543-1.1279-1.8979H127.1935c-0.0388,0.3959-0.0848,0.7885-0.1443,1.1715
		c-0.3533,2.3279,5.5908,6.9834,3.5957,7.4615l-3.8035,0.9352c-0.478,0.1248-3.0137,0.1456-3.0137,0.291
		c0.1039,0.0415,0.1246,0.104,0.1455,0.2286c1.7458,0.4365,0.9976,10.2882,0.9976,12.2003c3.7412,1.2471,5.2584,5.092,9.3113,5.092
		c6.3184,0,8.0435,0.9353,13.8423,3.0137c5.2998,0.3949,5.7571,3.0969,7.9395-3.0137c1.9329-5.3416,6.0066,6.2976,6.9626,8.6254
		c0.7483,1.829,3.4709,1.2262,4.0736,4.0114c1.8705,8.5837-5.8611,15.4634-3.9281,23.5483c0.4365,1.8496,2.2654,1.7874,2.785,3.658
		c1.1224,4.0112-4.1152,2.8682-6.152,2.3694c-2.1616-0.4989-3.0554,4.8843-4.7388,5.8195c-0.3325,1.1016-1.455,2.0785-1.642,2.8683
		c-5.0089,1.0184-7.4823,3.7826-8.8124,8.5422c-0.7898,2.8059-3.4711,3.8242-6.2354,3.1592
		c-0.8105-0.1871-6.5261,0.083-6.5261,0.4365c0.5612,0.187-0.4988,2.8267-0.4988,3.3047c-1.4757,0.8521-2.12,3.5332-4.5103,3.8866
		c-0.0415,0.1246-2.2031,1.2471-2.2861,1.2887c-0.0416,0.2701-0.2286,0.3116-0.2286,0.6443
		c-0.1039,0.0415-0.4779,3.2629-0.2909,4.0112c4.7386,1.2056,24.0886,14.4034,12.8237,17.23
		c-1.0808,4.344-1.7874,7.1707-6.0066,9.7686c-1.829,1.1431-4.1152,3.3047-5.6533,0.2909
		c-1.9329-3.7618-5.5908-0.8522-8.3136,1.0809c-1.1639,1.4548-2.12-0.7483-3.658,0.4988c-2.2863,1.8705-5.3623,1.2054-6.8171,2.6604
		c-0.9144,0.9144-3.9906,3.5332-5.1544,3.8035c-3.575,0.8521-5.4039-2.598-8.8748-2.598c-1.7666,0-0.665,6.0897-1.2263,8.3344
		l-4.5725-3.4502c-1.6003-1.1846-2.3486-1.6211-4.24-1.1431c-1.6211,0.4158-2.0991-2.0369-3.1383-2.8059
		c-1.6835-1.2053-6.2767-1.2262-8.4591-1.5796c-3.1177-0.478-4.5725-4.9465-8.2512-6.3184c-2.0994-0.769-6.1106,1.7043-5.009,2.8059
		c1.4341,1.4548,5.5078,2.9513,5.7987,5.3206v2.9307l-3.9281-0.2288l-4.5934-0.8313l-1.1639-1.2056l-2.6396,2.6396l-0.2078,0.1455
		c-1.8706,1.2887-4.905,2.2655-7.0874,3.0137c-2.7019,0.9146-3.9697,0.769-3.9697,1.4341c0,0.4781,0.7068,1.4133,2.0369,3.575
		c1.351,2.2031,2.3279,3.3672,1.7043,5.8196c-0.291,1.1847-4.4893,5.4454-1.351,5.6741c3.0553,0.2285,5.778,3.4086,8.2305,4.0321
		c0,0.8729-1.4548,2.016-0.9977,3.8035c0.769,3.0137-1.7458,3.762,1.933,5.2999c1.0599,0.4573,7.3783,2.1406,7.4615,2.4524h0.1455
		c0,1.9746-2.2031,3.6788-1.5797,6.0897c-1.7875,2.4733,0.3534,3.5957,1.8499,5.1129c0.8937,0.8728,0,2.1615,1.4342,3.4502
		c1.3093,1.1638,4.2399,1.8914,4.2399,4.0737c0,1.6211,1.3926,4.4063,3.076,4.8218c0.9561,3.949,2.7227,6.0481,2.7227,10.9116
		c0,3.7827-1.9536,8.6462-1.0807,12.1379c0.7274,0.1663,2.7228-0.6028,2.7228,0.4988c-1.1224,0.2703-0.7898,3.2632-0.7068,4.157
		c0.1248,1.6835-1.0184,3.4502-2.1614,4.7388c-0.1455,0.2703-0.582,1.3926-0.9353,1.4341c-0.1248,0.5405-1.8499,0.582-2.4318,0.582
		c-1.0392,0-4.3646,8.75-5.9442,10.3296c-2.0785,2.0991-4.4894,4.1777-5.3623,7.1082l-1.4342,4.7389
		c-0.4988,1.6211,0.6443,9.2074,3.5125,8.0433c1.6627-0.665,2.6396-2.5564,4.4271-3.5125c0.374-0.187,4.1567-1.5172,4.1567-0.6443
		c0.1455,0.0208,0.6443,1.3096,0.6443,1.5797c0.104,0.0416,0.0831,0,0.0831,0.1455c-0.6652,0.0831-3.7411,1.2262-3.7411,2.016
		c1.4341,0.3533,4.9465,4.2192,1.0807,4.2192c-3.9075,0-6.0897,3.658-9.3113,4.9673c-1.4965,0.6028-2.4525,3.1384-3.8658,4.0945
		c-3.4502,2.2864-5.7363,1.7876-7.8148,5.9443c-0.1663,1.2054-1.1016,5.6948-3.2838,4.5933
		c-1.2263-0.6028-3.1592-4.0737-3.658-4.0737c-0.3741,1.4548-4.1985,2.4318-5.3,2.7852c0,1.1016,1.3511,2.9097,1.3511,4.8218
		c0,0.8314,2.307,2.6812,2.9305,3.6582c1.5172,2.2861-1.2471,4.5516,3.8866,2.7227c3.0762-1.1016,10.6624-1.1223,9.2283,3.0137
		c-1.7043,4.9465-0.2286,8.1888,5.7363,8.1888c0.6443,2.598,0.3325,4.8011,1.7874,8.0435c3.5126,7.8357-6.1729,2.6812-7.2327,7.7524
		c-0.6652,3.2423-1.2888,2.6812-3.949,4.24c-3.7205,2.203,2.2446,4.0529,2.8682,5.2998l0.9353,6.5471l2.0784,0.8522
		c-0.8313,2.2239-1.4133,6.4431,2.2861,4.2399c0.8107-0.478,6.7341,0.1248,6.8796,0.7275c0.4573,0.1039,0.9561,3.554,1.2886,4.2191
		c1.0393,2.0369,3.9282,3.6372,4.8011,5.8195c1.0392,2.5358-0.7274,3.2008-0.1246,5.6118c3.5125,0.8937,7.7317,0.9768,11.3896,1.725
		v0.2079c-0.1455,0.0416-0.2078,0.2286-0.4365,0.291l-1.2886,4.0114c-1.1223,3.4917-2.1201,0.0624-3.575,0.4365
		c-0.4573,1.8081-2.3694,4.1982-3.949,5.2374c-3.8657,2.5774,1.7458,4.5103,1.933,5.4662c0.4156,0.9977,1.538,6.0691,2.1407,6.3809
		c0.291,0.1454,4.5518,0.0831,5.2375,0.0831c1.5381,0,8.5215,1.351,8.5215,2.5771c0,2.0992-1.8499,3.9283,1.2263,4.9467
		c3.1176,1.0599,1.8082,7.2953,0.1455,9.2698c-5.3208,6.2975,3.2216,5.7363,3.7203,10.2672
		c0.8937,1.5588,0.2078,2.4733,0.7274,3.9491c0.4988,1.4548-2.2655,1.1016-3.0137,1.2886
		c-0.5612,2.2654-2.9722-0.6443-3.4502-0.8522c-1.5588-0.7483-2.8682,1.1016-4.0736,1.7251
		c-2.785,1.3925-1.2471,4.1152-2.2239,6.6716c-1.7043,4.4063-9.7062-0.0831-10.974,4.9467
		c-0.9561,3.9073-1.0601,8.0642-1.0601,12.1379c-1.3925,0.3533-3.9905-1.829-3.7202,1.6418
		c0.0623,0.8938,1.6626,4.9259,0.0623,5.3208l-1.4963,1.4342c-0.1248,1.7457-1.6836,6.8794-1.6836,9.8101
		c0,0.7689,0.1248,1.3925,0.3949,1.7457c1.4133,1.8082,1.933,5.1337,1.933,7.2538c0,0.4205,0.1018,1.1064,0.2695,1.9186h711.5641
		C772.1305,984.3488,771.1373,983.7231,770.9398,983.4z"/>
	<path fill="#FFDB0B" d="M529.6371,1455.1156c1.5173-1.6627,5.6533-2.681,7.8148-3.1592c4.1361-0.9144,4.6556-5.6533,6.5055-9.3944
		c1.4548-2.9098,3.1591-2.7435,5.4454-5.0298c1.4757-1.4756,0.4364-3.9489,2.3693-5.7365c2.9929-2.785,2.4525-2.4524,1.642-6.6924
		c-0.7483-3.8658-4.7804-5.0713-3.6373-9.623c0.3533-1.4965,2.4525-3.5748,1.5588-5.092c-0.478-0.8105-1.5796-3.3047-1.6418-4.24
		c-0.1455-2.598,1.2054-1.9537,2.7227-1.5796c1.6627,0.4156,2.6188-0.7898,1.4341,1.7251
		c-1.0393,2.2446-2.1199,3.5956,0.7898,4.8842c2.12,0.9354,10.6206,3.0553,11.9717,0.6443
		c0.9976-1.8081,0.7274-3.9489,3.5748-3.9489c2.0784,0,4.3024,1.2886,6.3807,2.016l4.2399,1.7875l2.12,5.8195
		c1.351-0.2078,2.5979,0.0416,3.949-0.0623c3.4709-0.3118,6.7549-3.1177,10.1011-4.0321c2.0576-0.5404,7.3159-0.4988,7.3159,2.4525
		c-0.7483,0-4.4063,1.2054-4.5933,1.9329c-0.083,0.3119-0.4988,3.076-0.4156,3.2216c0.4156,0.8729,4.8011,0.0416,6.152,0.4365
		c2.411,0.7065,1.7458,4.0112,3.3047,4.8842c-0.187-0.083-0.2285-0.1246-0.374,0c1.6626,1.6836,3.3462,1.5797,2.8059,4.3855
		c-0.9353,4.8635,2.0784,5.2792,6.6508,5.4454c2.8682,0.1246,6.9625,0.6859,9.4567-0.7067
		c2.7644-1.5172,9.6855-6.7133,13.0525-5.8196c2.3485,0.6237,1.3717,2.9307,3.4294,3.076c2.9097,0.2494,4.0527-1.1638,6.3181-2.8682
		c1.1432-0.8937,2.5774-3.3047,3.9283-3.3047c2.5148,0,6.6508,1.9952,8.8124,1.4548c0-2.9304-1.9744-2.9304-3.7202-4.2399
		c-1.9122-1.4342,4.8843-7.4408,7.2328-7.2537c3.3671,0.2703,8.6461-0.0416,11.6807,0.9976
		c2.5356,0.873,5.3414-10.1426,5.7987-12.1378c0.6443-2.6812,4.8843-0.9144,6.7341-0.3534
		c4.0736,1.2471,8.7916-0.3948,12.8237-1.2886c2.2446-0.1039,3.6996,1.2886,5.7363,1.2886c1.5797,0,1.9746-1.829,2.7227-2.8682
		c2.3486-3.2839,13.2188-2.0784,17.1885-3.3047c1.2056-0.374,2.2864,0.478,3.3047,0.7898c2.6396,0.8107,4.3022,0.1455,7.0251,0.1455
		c2.3694,0,3.575,2.0784,5.8611,1.642l4.9883,0.5404c1.3716-2.3901,1.6001-4.4479,0.8936-7.8563
		c-0.582-2.8683-2.4109-5.5494-4.0737-8.2306l4.6558-2.3279c1.3511-1.7251,8.3552-8.4382,5.5078-2.2239
		c-0.7275,1.6005-2.3694,7.5863,0.9353,7.8356c0.9976,0.0624,1.9536-2.0784,2.7849-2.5148c1.1431-0.6028,5.113-0.1455,6.4639,0.1455
		c1.6628,0.3533,1.4756,1.2678,3.7827,1.1431c2.6396-0.1454,4.1152-2.889,7.1704-2.2239c0.9978,0.2079,1.5173,5.6741,2.9307,6.8171
		c0.187,1.0601,4.4478,6.1106,5.8818,4.6764c1.7458-1.7666,5.9443-0.0415,5.9443-0.8729c2.0159-1.1431,1.8704-8.6877,7.8147-5.5284
		c1.5796,0.8521,4.2815-4.5934,7.6692-2.0161c1.9331,1.4965,4.6558,1.3094,7.0251,1.5796c1.8914,0.2494-1.1638,2.5149,1.0601,4.5309
		c4.2815,3.8867,5.2375,2.5149,1.8706,7.3992c-4.1985,6.0897,5.2791,8.2305,7.1704,11.0571
		c1.4341,2.1615,11.4729,9.7893,13.8838,9.1865c0.1455-0.7274,0.9561-0.3533,1.2886-0.2909
		c0.8313,3.3671,5.1545,0.0623,6.2354-1.1432c1.0183-1.1223-0.7068-5.5493-0.208-7.3159c0.3118-1.1639,2.4109-3.4918,1.4341-4.7389
		c-1.3718-1.7666-1.9329-3.5956,0.7068-3.5956c1.6626,0,1.7874-3.1592,2.0161-4.3024c0.457-2.2446,4.8633-3.845,2.1406-7.1912
		c-2.1824-2.702-3.5542-9.7687-7.0251-10.8494c-4.1985-1.2887-10.8909,4.3024-14.1748-2.2863
		c0.4988-2.2031,1.2263-3.4502,3.658-3.4502c1.3511-4.0529,3.7827-9.9763,5.9443-13.863c1.1431-2.0367,1.5796-4.1151,0.291-6.2351
		c-0.8938-1.455-2.6396-6.0066-4.531-6.4015c0-0.1664-0.3533-0.6028-0.4988-0.6443c-0.2495-0.9769-0.6028-2.6396-0.9978-3.575
		c-0.4573-1.1639,0-1.6627-1.4341-1.6627c-1.2053,0-1.4756-2.4733-2.2239-3.5125c-0.5818-0.8107-4.3022,0.8521-4.3022-1.5796
		c-0.8108-2.3903-1.3511-5.5702-2.4941-7.6902c-2.7434-5.0089-15.5256-9.4567-11.3896-17.0013
		c0.5818-1.0807,1.4131-5.4454,2.4939-2.8059c1.6213,3.9282,2.0579-3.5956,4.739-3.5956c2.9097,0,3.3462-5.4039,6.0066-6.1729
		l2.7019-3.0137c0.561,0.187,1.0601,0.2701,1.4548,0.2078c8.0435-1.0183,7.1704-1.7458,12.1172-7.4615
		c2.4109-2.785,5.6948-4.1982,9.1658-5.4453c3.0137-1.1016,4.1777,0.5195,7.6069-2.1616c2.2241-1.7458,9.332-0.2909,12.1794-0.5819
		c4.5935-0.4573,9.3113-7.129,12.0964-10.3297c1.9536-2.2446,6.3806-2.8889,5.5286-7.0458
		c-0.8938-4.1984,3.0759-4.1984,0.8521-8.6877c-1.5588-3.1384-0.1663-3.4501,1.1433-6.0898
		c0.5403-1.1014,0.7896-2.7018,1.0806-3.8865c0.6235-2.4941-0.4365-7.3368,1.6421-9.2698c1.3926-1.2678,3.554,0.3118,4.3022-1.9329
		c0.3325-0.9977,0.291-2.0991,0.4365-3.1592c1.2886-0.7483,2.2446-0.8522,3.1382,1.0184c0.5198,1.0599,2.9724,4.2399,4.5935,3.2838
		c2.7019-1.5795,7.6692,0.2079,9.7478,3.3047c1.8496,2.8058,4.988,2.8682,6.7131,5.0298l3.7412-3.1592
		c0.1245-1.4341-0.4988-2.7228-0.4365-4.1569c0.083-1.7043,2.1199,0.9146,3.0969-0.6443c0.665-1.1016,2.1821-1.351,3.3669-1.5796
		c0.2703-1.1639-0.1248-2.3694-0.291-3.5332c-0.291-1.8499,1.7874-2.2656,2.4316-4.2192c0.2078-0.6443,0.395-5.2169,0-5.3208
		c-0.0208-0.1246-0.2703-0.3949-0.3533-0.4365c0-1.0598-0.0623-2.4733,0.208-3.5125c0.2908-1.1016-0.1873-1.1016-0.3535-2.016
		c-0.1663-0.9353,1.6421-1.2887,0.7065-2.8682c-0.6025-1.0184-2.9304-2.1824-2.9304-3.4502
		c2.8267-0.7067,2.5356-1.9537,2.3694-4.3024c-0.0623-0.8105,0.3325-1.4548,0.9976-1.8705
		c1.6006-0.9769,1.2056-2.1409,1.7876-3.7203l-2.7227-1.0809c-2.0994-1.0598-1.5588-3.5956-1.9331-5.5492
		c-0.6235-3.2216-3.0967-2.6812-4.51-4.8011c-0.9978-1.4965-1.7251-2.0992-1.7251-3.9491c0-1.2886-0.769-4.3022-2.2864-3.5956
		c-1.2886,0.6028-2.6187,0.5197-4.0945,0.5819c-2.5564,1.2679-2.7434-2.1199-4.3645-3.8865
		c-1.9539-2.1201-2.7644-4.531-3.3047-7.2329c-1.6006,0-2.5981,0.2494-3.2217-1.7252c-0.7273-2.3693-1.2886-1.5795-3.5122-1.5795
		c-3.8452,0-7.5239-2.9513-6.3601,2.8682c0.7483,3.7827-3.4502-0.665-3.949-1.0184c-0.8105-0.5819-2.0784-0.8313-2.9307-1.351
		c-1.9329-1.2054-3.2214-2.2031-5.0295-3.7412c-0.9353-2.8058,0.4988-8.3344-1.1433-10.6206
		c-1.9536-2.7019-4.2192-4.5309-6.5054-6.9626c-0.748-0.8105-5.009-5.6117-5.5286-5.7365
		c-0.1248-0.4988-2.7227,0.1663-3.2214,0.2079c-1.7043,0.1455-3.1592-0.0416-4.8013-0.1455
		c-1.6418-0.1039-3.845-3.3254-5.3831-4.0945c-0.083-0.8105-0.2495-2.3901,0-3.2214c0.4573-1.4342-1.2053-2.2448-1.9954-3.3879
		c-1.2053-0.9768-3.45-2.7019-4.0112-4.0944c-0.5195-1.2679,0.4158-3.1177-1.2886-3.4294
		c-2.7437-0.5403-1.8499-2.5771-4.3022-4.0321c-1.8914-1.1016,0.2285-2.7643-2.3696-3.3047
		c-3.0552-0.6443-0.9351-3.5126-2.0781-5.8196c-0.3743-0.7689-6.6716-6.7339-7.5864-7.2328
		c-1.9951-1.1224-4.614-0.478-6.3806-1.5172c-2.7227-1.6005-2.6809,1.725-3.0759,3.3047l-0.0833,0.0624
		c-0.561,0-3.1384-2.1201-3.7202-2.5149c-2.4319-1.2056-3.6997-0.3534-6.1521-0.3534c-1.6003,0-1.5173-2.7435-2.3071-3.658
		c-0.7275-0.8729-1.3301-1.5381-1.7874-2.5773c-0.5403-1.2262-0.1663-2.2654-0.8523-3.3877
		c-1.0601-1.7251-3.3877-1.4758-4.0112-3.3671c-0.8105-2.4525-6.7756,1.6003-6.2354-4.0321c0-2.0161-3.928-6.3184-2.2236-7.2329
		c1.4963-0.8314,0.1455-5.8611,0.1455-7.5446c-7.7319-1.9539-6.4431-3.6996-7.1707-10.8494
		c-0.1455-1.4756-2.0369-2.016-2.1406-4.0114c-0.1873-3.1176-3.866-0.8105-3.8035-3.2423l0.2285-9.041
		c0-1.1639-4.4685-1.6005-5.5908-2.1615c-1.4756-1.4758-3.1592-1.4965-4.4478-3.3671c-0.7068-1.0184-0.686-1.8914-1.1431-2.9514
		c-0.873-1.9537-3.3047-1.9121-3.3047-4.5933c0-3.6372,7.3159-4.1984,7.8147-7.4615c0.395-2.5981,0.9353-6.1106,0.9353-8.6047
		c2.2861,0,1.8496,1.6627,2.8682-1.3716c0.4158-1.2887,1.7458-1.933,2.3486-3.8036c0.9561-2.9514,4.4893-4.3439,2.7227-7.3992
		c-1.4133-2.4733-4.2192-1.0184-6.5056-2.8682c-0.9353-1.1847-2.2029-2.2031-1.4338-3.8035
		c0.478-1.0184,1.8289-1.1016,2.2861-2.0161c0.665-1.3302-2.7227-3.4917-2.9307-5.0298c-2.2654-0.561-4.427,2.1201-4.9465-1.6418
		c-0.5193-0.0709-2.2656-0.8661-3.7615-1.677H61.704c0.5283,2.5592,1.7258,6.4037,2.5779,7.4135
		c2.7434,3.2422,7.2328,4.8842,7.7523,9.9763c0.9353,5.2792,4.3024,8.6254,9.7477,8.6254c0.1455,0.6235,0.395,6.0897,1.4966,5.092
		c3.6995-3.3254,1.7458-1.3093,5.5908-0.3531c0.5404,2.1823,6.1521,6.6923,8.1682,4.4478c0.7483-0.8314,7.9395,0.3533,7.9395,2.016
		c-2.0991,1.2056-0.4988,8.8749-0.4988,11.2027l1.0393,3.5541c-0.582,0.1246-1.0186,0.3949-1.1848,0.8937
		c-0.0415,0.1455-0.7897,0.9977-0.9976,1.0808c-0.9146,0.4156-4.4685,3.3669-5.4454,4.1567
		c-0.5404,0.4574-4.5725,3.4087-2.9305,4.9675c1.2678,1.1847,0.2701,5.0089-1.0808,6.5261
		c-1.0184,1.1432-3.8658,5.3831-5.2999,5.8196c-0.0624,0.0208-0.0624,0.187,0,0.2078c1.7875,0.5197-0.6443,1.829-1.1432,2.4526
		c-0.6858,0.8313,1.8499,0.9561,1.2887,2.6395c-0.5819,1.7458-1.9952,3.0344-2.2239,4.9674
		c-0.3741,3.1592,2.2863,5.5078,1.4341,8.8956c-0.1871,0.7898-0.4364,1.538-0.7274,2.2654
		c0.8936,0.1455,1.7874,0.1871,2.6396,0.1871c1.9121,0,3.762-0.2288,5.7571-0.2288c1.9746,0,2.9722,1.9537,4.4479,2.5149
		c1.6627,0.6443,7.6486,2.411,7.0043,4.4478c-1.7043,5.5494,5.6948,5.3,6.734,10.3506c0.1663,0.7067,0.3118,2.972-0.9144,2.5149
		c-0.395-0.1455-5.2999-2.307-2.9514,0.6443c1.2263,1.5172,2.4525,2.4318,3.5957,4.1567c-2.1616,3.8451,4.6555,4.7596,6.3599,6.9004
		c0.8523,1.0392,0.769,1.7251,0.873,3.076c0.1246,1.642,2.2861,2.3485,2.2861,2.8682c0.104,0.0416,0.0831,0,0.0831,0.1455
		c0.0416,0.0208-0.1663,3.5748,0,4.1776c0.8107,3.2216,4.0321,0.104,4.8635,3.3671c0.8314,3.2216-0.6443,6.0481,2.5149,8.6877
		c3.9075,3.4709,10.4337,5.4453,12.0963-1.0808c0.6237-2.4318-2.2654-10.4128,0.3533-9.9764
		c7.1498,1.1847,13.6553,0.6237,19.0591,8.2513c0.9976,1.3925,4.1776,17.3132,6.8795,6.256
		c1.4548-5.9442,4.3024,0.7067,6.9626,1.5797c2.224,0.7273,2.6604-0.291,4.5725-0.291c1.2679,0,0.9977,1.8705,2.224,1.8705
		c1.9329,0,2.7434-2.8474,6.0897-1.725c7.6277,2.5355,3.2216-2.0369,9.0411-2.4526c4.7595-0.3325,1.1846-6.0272,7.3782-6.0272
		c2.7644-1.4758,4.0115-1.6628,4.2192,1.0807c0.0624,0.8522,7.1497,1.8914,7.025,3.3671c-0.1455,1.8081-2.3901,1.5795,0.2079,3.3046
		c2.2239,1.4757,3.0968,4.5518,4.3022,6.7549c1.642,2.9722,4.905,0.9976,7.3784,2.016c2.5771,1.0392,2.307,2.3278,3.8658,4.24
		c1.642,1.9745,4.3231,1.6627,6.1729,0.4156c2.8058-1.9121,6.838,3.4711,10.0179,0.4988c2.6396-2.4316,2.4525-1.3302,5.2998,0.582
		c2.3279,1.5588,8.958,2.5149,11.0364,0.5819c3.4294-3.1798,4.5103,2.7228,8.7501,3.0137c1.4965,1.0808,3.7203,0.9354,4.8635,2.5149
		c1.9122,2.6395,3.4086,3.8035,6.734,4.5934c1.3096,0.3118,2.889,0.4988,4.24,0.4988c1.5796,0,2.7435,1.2054,4.2191,1.2886
		l4.3646,2.4525c-0.9976,0.5613-1.5588,0.8522-1.9951,1.0601c-1.7251,0.8729-2.7644,5.2791-4.5103,6.547
		c-3.5332,2.5355-5.7571,20.8672-9.5398,22.1143c-0.7483,0.2494-3.4502-0.769-4.3025,0.2079
		c-0.7065,0.8313-0.8105,4.0114-2.1406,4.4478c-2.8059,0.9352-7.1705,0.478-7.1705,4.2399c0,5.7157-2.8683,7.5654-6.2976,11.9302
		c-0.8937,1.1223-4.7389,4.323-6.1729,4.6556c-2.4525,0.5612-1.1639,3.9073-1.8497,5.1752
		c-0.5195,0.9353-3.0969,3.1384-3.0969,3.8658c0,3.8035,0,7.6278,0,11.4313s-2.0576,3.4086-3.2838,5.5909
		c-1.3094,2.307,0.2079,2.016,0.2079,4.5309c0,1.8497-2.5358,5.7365-3.2839,7.6693c-1.3926,3.5541-3.4293,7.1082-1.9329,10.5583
		c4.0945,9.4983-3.3254,5.3623-4.6558,11.7845c-0.9143,4.3022-1.1223,12.3457-5.9648,14.5697
		c-2.4734,1.1431-1.2678,5.2791-2.7852,7.4614c-4.1776,6.0482-6.1313,16.0662-3.5125,23.403
		c1.5172,4.2191,6.4639,6.1521,2.016,10.9948c-1.8705,2.016-1.2678,5.1544-1.8082,7.7524
		c-0.6235,2.9929-2.8682,3.7203-2.7227,7.1082c0.2078,4.5725-0.1871,6.4222-2.3486,10.1842
		c-1.7875,3.1177-0.8105,8.7294-0.4989,12.2211c0.1246,1.6003,0.9769,2.5356-0.4364,3.7203
		c-4.1361,3.5125-0.0417,8.8125,2.2239,11.9924c1.2262,1.7458,2.5356,2.9305,4.0112,4.2399
		c1.4966,1.3302,0.9353,4.0322,0.9353,6.0275l3.9282-1.9329c1.0393-0.4365,1.5381-1.6421,2.5564-2.0161
		c0.582-0.2079,1.5381,0.1455,1.4966,0.8728c-0.0416,0.5613-0.2703,0.9562-0.1871,1.5797c0.0831,0.665,0.665,1.7043,0.4364,2.2863
		c-0.2909,0.769-1.3925,1.2471-2.0369,1.6835l-1.8704,3.0345c0.2493,0.2078,0.478,0.3741,0.6858,0.5195
		c5.9235,4.3439,8.8955-0.2703,15.1931-0.6443c2.3901-0.1248,4.3024-2.2863,5.009-4.3024c0.4988-1.4757,8.293-1.3508,9.3113-0.7065
		c1.8497,1.1223-0.1455,5.9442,3.5125,5.9442c2.2654,0,2.9098-1.642,5.2999-1.642c3.5956,0,5.965,1.9745,9.2489-1.0808
		c1.7458-1.6211,1.7251-1.1223,3.0137,0.3533c0.6859,0.8107,2.2446-2.6603,2.9305-3.0137c1.0601-0.5403,6.069-2.0575,6.7965-2.7227
		c1.4963-1.3717,3.5125-4.905,5.3831-4.0945c1.2471,0.5404,3.7203,0.2079,4.4478,0.8522c0.3326,0.3118,4.5103,4.1984,5.4456,4.8219
		c1.7874,1.2054,3.1174,2.598,5.2168,3.076c1.3093,0.3118,3.1592-0.6443,4.2399-1.1431c1.2887-0.6028,3.9906,0.2909,5.6533,0.2909
		c2.9305,0,3.7826-1.0808,5.7365-1.8706c0.1246-0.0415,0.1246-0.374,0-0.4364c-4.1985-1.3301-0.6028-3.5748,0.2909-4.9467
		c0.9977-1.5587,4.0945-4.1569,6.0897-2.2863c0.4158,0.395,7.1705,8.7916,7.3783,3.575c0.0831-2.1407-0.5819-2.9514,0.3534-4.9467
		c1.0392-2.203,0.1663-3.6372,0.4988-5.2792c-1.7251-1.0392-6.0273-0.1455-7.5862,1.1223c-1.8914,1.5172-1.9121,3.762-5.2375,2.0785
		c-3.2009-1.642-9.0204,2.6604-9.0204-4.0321c0-1.2678,0.3534-3.8035,0.7898-5.0298c0.6859-2.0369,1.5381-1.9745,2.7228-3.2839
		c1.0392-1.2054,0.9143-2.5564,1.4963-3.8866c0.7483-1.6836,3.2632-4.6556,5.0922-5.092c1.1223-0.2703,2.9305,0.3325,4.3646,0.0623
		c1.9121-0.3325,3.5125-7.2535,6.0066-4.4478c2.5564,2.8683,1.4133,4.5518,5.965,6.4639c1.1847-0.4573,2.0992-0.5819,3.2216-1.1432
		c1.0601-0.5404,3.4709-1.2886,4.5725-0.7273c0.9353,0.478,1.1638,1.9745,0.7898,2.868c-0.6235,1.5173-2.4941,2.5565-1.933,4.3855
		c0.2701,0.8522,0.9561,1.1016,1.5795,1.642c0.6444,0.6028,0.4365,0.9561,0.8523,1.5172l-0.3534,3.0553l3.6372,2.0161l3.9697,0.665
		l-0.2286-2.9307c-0.5195-1.1847-1.9745-3.7826-0.4156-4.8219c0.8314-0.5404,2.2031-0.2078,3.076,0.1455
		c0.7274,0.2911,1.2471,1.0184,2.0784,1.2263c0.873,0.2286,2.3279,0.291,2.8682,1.0807c0.6859,0.9977-0.5195,1.6627-0.6443,2.7228
		l-0.2285,3.3878c0.9976,0.4364,1.7666,0.9561,2.3069,1.642c4.1569,5.3207,13.5096-1.5381,18.6851-3.0137
		c3.5125-0.9977,5.9857-0.1248,8.8955,1.434c1.2263,0.6652,2.5149,1.0809,3.2216,2.224c0.8729,1.4133,2.7228,0.7898,3.9281,1.2886
		c0.5197,0.2079,1.1016-0.083,1.6628-0.1455l9.1035-0.3533l4.323,3.3462l8.7708,4.1985l7.2537,4.9465l5.4456,4.4479l4.51,3.2422
		l3.3672,0.2704l3.2838,2.2445l13.1979-0.4364l2.7849-3.0137c1.0186-2.5149,3.3256-7.5863,6.2354-8.189
		c4.6556-0.9768,2.7019,2.0369,2.0784,4.9465c-0.4988,2.3071,2.2239,1.8082,3.2214,2.8059c2.6812,2.6812,3.2423-0.3533,6.5886,0.582
		c1.4965,0.4155,1.8914,1.4965,3.7203,1.4965c1.7458,0,2.7643-1.8706,4.0112-1.8706c0.3534,1.3926,0.0416,5.5702,1.8705,6.0482
		c1.2056,5.9857,2.4526,2.0576,6.5264,4.0736c2.5979,1.3094,0.7275,5.2584,5.6533,5.2584l0.083,0.0623
		c0,2.6812,1.3717,5.3-2.3694,6.2561c0,1.8497,1.4133,4.0114,1.933,5.882c0.2286,0.561,0.7274,3.2214,1.9953,2.6603
		c0.5403-0.2494,0.9146-2.5149,1.9329-1.8706c5.4871,3.3671,2.9722-2.8474,8.6047-2.0784c5.196,0.6858,4.2815,3.3462,0.9353,6.9626
		c-2.3486,2.5149,2.1199,4.4479-1.7875,7.1705c-4.4054,3.0756-1.5807,4.8628,1.8894,4.8634h0.0035
		C526.2921,1456.965,528.4735,1456.3831,529.6371,1455.1156z"/>
</g>
<g id="layer1" transform="translate(475.36 83.397)">
	<path id="path2956" d="M16.2793,466.9935c-0.983,0.0977-1.4788,1.8494-2.5009,2.3962l-0.2934-0.4499
		c-1.2001,1.3214-2.6044,2.2739-4.185,2.9487c-0.7335,0.5085-1.7947,0.6944-1.6323,2.1047c0.7824,0.2152,1.113,0.5868,0.3423,1.3947
		c-0.6455,0.3032-1.2441,0.6455-2.0265,0.8705c-0.1858-1.0661-0.3815-2.1243-0.4205-3.2383
		c-0.098-0.1369-0.2641-0.2347-0.4499-0.3423v-0.3423c0.3032-0.1467,0.7335-0.2934,0.7335-0.6846
		c-0.001-0.3912-0.5183-0.5673-0.8411-0.4988c0,0.1173-0.1173,0.1271-0.2152,0.1271v-0.1271
		c0.1075-0.0979,0.1566-0.1858,0.1566-0.3129c0-0.176-0.1271-0.313-0.2935-0.3423v-0.3716h0.2152v-0.1271H4.6534v-0.2152H4.5165
		v0.1858H4.3013v0.1271h0.2152v0.3716c-0.1566,0-0.2934,0.1664-0.2934,0.3423c0,0.1173,0.0977,0.2249,0.1566,0.2934v0.1369
		c-0.1075,0.0087-0.2153,0-0.2935-0.1566c-0.577,0-0.665,0.3619-0.6846,0.577c0,0.2152,0.2836,0.5086,0.5477,0.6553v0.3423
		c-0.3227,0.1566-0.6063,0.2836-0.8411,0.5281c-0.0979,0.3521,0,0.7238,0.1566,1.0788c0-0.1271,0.0977-0.2543,0.1566-0.313
		c0.176-0.137,0.4401-0.1858,0.6357,0.0979c0,0.9194,0.3032,1.957-0.3912,2.58c-0.9096-0.2739-1.8035-0.5575-2.2642-1.5267
		c1.114-1.0181,0-1.4358-0.4205-2.0529c-2.3571-1.9688-5.0075-2.3552-7.0272-4.3963l-0.1566,0.2935
		c-0.5966-0.489-1.6539-1.5316-1.9482-1.3164c-0.3032,0.2249,0.3032,0.9956,0.6357,1.5013
		c-0.8802,0.9389,0.313,1.1873,0.6357,1.7369c-0.6357,0.6357,0.176,1.114,0.6064,1.6313c-0.1956,0.5184-0.3228,1.0474,0.9194,1.4474
		c-0.4988,0.7335,0.2347,1.0025,0.8411,1.3164c-0.2054,0.6161,0.098,0.8607,0.5771,0.9781c0.1566,0.3423,0.1661,0.89,0.7335,0.6553
		c0.1271,0.3912,0.3032,0.7042,0.8705,0.5281c0.0977,0.7335,0.4988,0.8118,1.1315,0.4792c0.0979,0.4304,0.2152,0.7238,0.5281,0.6357
		c-0.0043,0.4988-0.7139,1.3995,0.2152,1.3683c0.0979,0.5184-0.0087,1.3214,0.6846,0.7922c0.2249,0.3521,0.3716,1.0084,0.89,0.2641
		c0.2152,0.264,0.4108,0.8215,0.7335,0.1369c0.2347,0.176,0.176,0.9683,0.89,0.1566c0.2054,0,0.176,1.0641,0.137,1.1061
		l0.313-0.0977v0.5574c-1.2841,0.1566-1.3066,0.9291-1.2108,1.7625c0.0087,0.0087,0,0.0087,0,0
		c-2.0343,1.2333-3.3948,3.4749-3.3948,6.0276c0,3.7527,2.9556,6.825,6.6595,7.0272v0.6357
		c-0.6944,0.225-0.8411,0.3032-0.8704,0.6553c0,0.3521,0.2934,0.4401,0.6064,0.6553l0.1858,0.714l0.1857,2.1067
		c-0.4499,0.3325-0.3619,0.6749,0.0979,0.9995l0.2152,5.8438l-1.5795,1.2361c-0.5379,0.6357-1.0768,1.291-1.6852,1.738
		c-2.4978-1.9473-4.0706-0.2836-4.7903,0.8411c-0.7335,1.1521-0.9194,6.6458-0.6357,10.0287
		c0.8411,5.341,1.2059,10.7332,1.5532,16.1348c-1.4064,0.9487-5.7469,3.295-7.1335,3.8172v-1.1062l0.8705-2.2886l-0.0979-1.7115
		c-0.8802-0.665-0.489-0.8313-0.137-1.0005c0.5281-1.066-0.1566-2.1448-0.8704-3.2109l-0.7629-0.5281
		c-1.2469-0.4206-2.629-1.6147-3.3948,0.978c-0.1075-0.5379-0.7726-0.8118-1.3692-1.1052c-0.0979,0.665-0.4694,1.3516,0.4206,1.8954
		l-0.0979,0.7335c-1.0856,1.1414-0.8509,1.8289-0.8411,2.6055c0,1.0074,0.0977,1.6245,0.0977,2.2642
		c-0.2738,1.7751-0.6063,3.5424-0.8704,5.3166c-6.2868,2.0519-17.2975,3.3469-19.4508,2.3962l0.1075-0.3716l-0.4205-0.1566
		c-1.1453-3.1982-1.7155-6.4941-3.5278-9.6079c-0.176-1.0054-0.9682-1.9942-1.5795-3.0006
		c-1.5394-0.9291-2.9243-2.7991-4.6056-2.8167c-0.8215-0.0087-1.7037,0.4108-2.7111,1.606l-0.9487,0.4499
		c-0.9683-0.3521-1.0612-0.0979-1.3164,0.1271l-0.6357-0.1858v0.4988c0.8607,0.0022,1.0367,0.5575,1.3682,1.0005
		c0.1956,0.6064,0.137,1.1394,0,1.6578c-0.4987,0.5673-0.8998,1.065-0.8411,1.2636c0.1369,0.3423,0.1467,0.6846,0.1075,1.027
		l0.7922,0.9995v1.6587c0.3521,1.3536,0.6455,2.6848-0.4694,3.5796c0.2152,0.4792,0.4499,1.0152,0.7628,1.6852
		c0.2934,0.2543,0.3325,0.6553,0.4499,0.9995c0.5281,0.7335,1.1463,0.5184,1.7643,0.2347c0,0,2.1487,0.6846,2.2896,0.6846
		c0.137,0-0.1075,0.8705-0.1075,0.8705h0.1075l-0.0977,1.0778c-0.8802,0.9194-1.6402,1.8759-1.9482,3.0808
		c-0.6553,0.9585-0.5379,1.6099-0.4988,2.2896l0.6064,2.9224c0.489,0.6455,0.3716,2.0656,0.4694,2.8421
		c0.7042,2.3698-0.9389,2.7033-2.1585,3.4222l-0.3423,1.9472c0.577,2.1653,0.5281,4.7327,0.7139,7.1592
		c0.1664,0.9682,0.313,1.9462,0,3.0533c0.6455,2.3796,2.76,3.4916,3.5278,1.7899c0.7629-1.6802-0.5086-2.7698-1.0269-3.7899
		c-0.4988-0.1858-0.4108-0.8215-0.3423-1.29c-0.6455-3.517-0.5379-5.1747,0.2152-5.8691c0.176-0.3912,0.2054-0.8411,0.1857-1.3165
		c0.9683,0.225,1.5043-1.1541,2.0529-1.2108c0.5477-0.0977,0.7433,0.5085,1.2372,0.3912c1.0583-0.4792,2.2866,0.5673,3.3429-0.3423
		c-0.2836-0.489-1.0084-0.9946-0.8118-1.4474l1.8954,0.2641c0.313,1.3937,1.0895,2.3727,1.7898,3.4221
		c0,0,0.2641,3.4319,0.1075,3.5796c-0.802,0.7433,0.1271,4.0128,0.1369,4.2906c0.3032,1.8279,0,3.6716-0.2347,5.5004l0.0977,1.6852
		c-0.3521,0.3619-0.6944,0.6259-1.0524,0.8704c-0.0977,0.5477-0.1858,1.0651-0.2934,1.5786h-20.6627v1.7898h-6.3171v4.3962h-4.4226
		v4.3953h-173.605l10.2821,13.2673v22.0577h-4.3963v4.4216h-17.6874l-8.8181,4.3953l8.8181,4.449v4.3953l17.6874,13.2396v26.48
		h-8.843l8.843,13.2659v198.6245h35.2981v-13.2396l-4.3962-4.4217V694.0995l4.3962-4.4217h39.7189l4.449,4.4217v189.8074
		l-4.449,4.4217l0.2347,13.2396h39.5095v-13.2396l-4.449-4.4217V694.0995l4.449-4.4217h48.5364l4.4216,4.4217v189.8074
		l-4.4216,4.4217v13.2396h39.7714v-13.2396l-4.4481-4.4217V694.0995l4.4481-4.4217h79.4103l4.4216,4.4217v189.8074l-4.4216,4.4217
		v13.2396h39.7452v-13.2396l-4.3953-4.4217V694.0995l4.3953-4.4217h48.5364l4.449,4.4217v189.8074l-4.449,4.4217v13.2396h39.7458
		v-13.2396l-4.4217-4.4217V694.0995l4.4217-4.4217h39.7189l4.449,4.4217v189.8074l-4.449,4.4217v13.2396h35.3237V702.9441
		l8.8181-13.2659h-8.8181v-26.48l17.6625-13.2396v-4.3953l8.8444-4.449l-8.8444-4.3953h-17.6625v-4.4217h-4.4217v-22.0577
		l10.074-13.2672H81.7542v-4.3953h-4.449v-4.3962H68.856v-1.7898H40.6914l-0.0977-20.8735h0.5574
		c0.0977,0.9683,0.3521,1.8984,0.9194,2.7894c0.0979,1.8729,0.3423,3.7087,0.2152,5.6334l-0.577,1.4739l0.7922,1.9737
		c-0.1664,0.489-0.4011,0.8509-0.6846,1.1052l0.4499,3.028c0.5673,0.2543,1.2088,0.3325,1.5531,1.0788l-0.2641,1.9737
		c0.7629,1.3575,1.9463,1.7291,3.4749,1.3164c0-0.8411-0.0977-1.2636,0.1075-2.5262l-0.5771-0.89l0.0979-1.2636
		c0.626-0.4401,1.1355-0.9849,0.9487-2.1849c0-0.8509-0.2739-1.6529-0.6846-2.4481c-0.225-0.7628-0.1566-1.5306-0.1566-2.2896
		c0.6943-2.3072,1.0533-4.4011,1.3947-6.4755c0.5281-0.4108,1.0035-0.1271,1.4739,0.0977c0,1.8641,1.6128,4.2642-0.3423,5.4486
		l-0.6846,1.9482c0.8411,3.0534,0.1759,6.0589-0.7335,9.0538c0.0979,0.7726,0.0979,1.6705,0.5477,2.001h4.8696l-0.137-0.9487
		l-1.2626-1.3419c0.0022-1.157,0-2.3384,0.2054-3.5542c-0.2543-3.4407,0.2739-5.0251,0.7629-6.6858
		c1.8847-1.7546,1.733-2.3101,2.1321-3.1844c1.0631-0.7042,1.0915-2.0343,1.3154-3.2373l1.8954-1.0797
		c0.6454-0.3619-0.8998,1.914-0.4206,2.2377c0.489,0.3325,0.7433-0.7433,1.2108-0.8998c1.1648,0.1173,2.1213,0.5574,3.0533,1.0269
		v4.185l-1.0797,2.0539v1.6841c-2.6084,1.9063-1.8827,4.4559-0.6064,4.6066c1.2988,0.1566,2.092-0.0043,2.5536-2.7903
		l-0.2935-1.1315c0.4597-0.3814,0.6945-0.9947,0.9194-1.606c0.2152-2.0372,0-4.1536,1.158-6.0276l0.1075-2.2377
		c-0.9829-0.9389-1.3203-2.2964-1.7369-3.5796c0.264-0.8215,0.2444-2.6465,0.264-2.6583c0.2543-0.137,0.6553-1.0749,0.5281-2.3688
		c0.2739-0.5281,0.6161-1.0602,0-1.8162c0.1271-1.0308-0.4988-1.9267-1.0533-2.8431c-0.4304-0.4988-0.538-1.288-0.6553-2.0529
		l-0.2347-1.8945c0.5574-0.7628,0.978-1.5257,1.158-2.2905c0.4695-0.1369,0.8998-0.489,1.2372-1.3947
		c0.3326-0.3228,0.665-0.7139,1.0005-1.29c-0.1662-0.3227-0.5184-0.4205-0.3423-1.2108c0.0979-1.2744,0-2.6045,0.3912-3.7635
		l0.6064-1.158c0.5613-0.625,0.6006-1.2986-0.2501-2.0529l0.0979-1.1844l0.4694-0.978c0.5477-0.7726,1.4974-1.381,0.9781-2.6319
		c-0.6064,0.7531-1.2098,0.8802-1.8162,1.158c-0.401-0.4401-0.5869-1.0386-1.5795-1.0005c0.4009-0.7531,0.3619-1.0426,0.1075-1.0524
		c0-0.001,0-0.002-0.0977,0c-0.2347,0-0.6064,0.225-1.0524,0.4694c-1.0034,0.1468-2.1027,0-2.8696,0.8705
		c-1.0338,0.176-1.9218,0.7726-2.448,2.3434c-1.7171,1.0911-2.2766,2.2551-2.342,3.4742c-1.824,2.3332-1.7096,5.1529-2.1058,7.8432
		l-0.3423,1.9222l-0.3129,1.1062l-0.2152,0.5281v0.0979c-4.5733,0.7335-9.0847,0.5086-13.5817,0.1858
		c-3.1766-1.4308-6.367-3.0143-9.4759-4.1058v-0.1566h0.0979c-0.0979-0.6944,0-1.2724,0.2347-1.7908
		c0.2836-0.3521,0.4695-0.8118,0.577-1.3419c0-0.5281,0-1.0797,0.2054-1.6059c-0.4108-0.2836-0.6945-0.7433-0.9194-1.2891
		c0.2543-0.8704,0.3521-1.8504,0.3423-2.8959c0.2739-0.9781,1.1492-1.8318,0.1075-3.0534c-0.2152-0.5379-0.4009-1.0974-0.8704-1.553
		c0.5379-1.4025,0.9389-2.6798-1.158-1.1834c-0.7531-1.0514-1.6812-1.3585-2.9742-0.2641l-0.6064-0.6064
		c-0.2641-3.0104-0.7531-11.0889-1.2372-13.7136c-0.7042-3.8221-2.896-7.2452-6.0541-3.4485
		c0.665,1.7605,0.6357,3.4388-1.5531,4.8432c-0.0977,0.0065-0.1467-0.002-0.2152,0c-0.3618,0-0.5281-0.0977-0.6846-0.1369h-0.1075
		c0,0-0.0977,0-0.1075-0.0979c-0.1662-0.626-0.6357-0.8705-1.158-1.0534c-0.5869-0.3716-0.6553-1.1443-0.89-1.7898
		c0.3032-0.6944,0.577-1.3633,0.4694-2.0538c0.313-0.0977,0.3228-0.313,0.313-0.5477c0.2445-0.2347,0.4597-0.4988,0.4988-0.8998
		h0.5477l-0.2152-0.4988l0.3716-0.1271l-0.1566-0.313l0.2347-0.0977v-0.3912H13.882l0.4695-0.3423l-0.2934-0.2054l0.264-0.6357
		l-0.4205,0.2054l-0.1858-1.2098l-0.137,0.714l-0.8704-1.026l-0.137,0.2152l-0.4694-0.577v0.4499h-0.313v-0.2934l-1.1052,0.2152
		l0.0979-0.313l-0.9193,0.2934v-0.2347l-1.0005,0.6064l0.1075-0.313l-1.2637,0.7335l-0.0979-0.3716l-0.5574,0.8411l-0.4499,0.1369
		l-0.1566-5.4222c0.3423-0.3716,0.4694-0.7628-0.0977-1.0524v-2.1067l0.1566-0.6846c0.225-0.2445,0.5575-0.3912,0.5477-0.714
		c-0.0043-0.3325-0.1468-0.4303-0.8411-0.577l-0.0977-0.6553c3.5522-0.3521,6.3435-3.3557,6.3435-7.0009
		c0-3.3683-2.5048-6.0785-4.8433-6.6871v-0.5281c0.4401-0.1271,0.7531,0.2445,1.1316,0.3716
		c0.1173-0.0977,0.4205,0.6455,0.4499,0.714c0,0.0979,0.1566-0.5086,0-0.577c-0.1664-0.2152-0.4401-0.2347-0.4988-0.6553
		c-0.4597-0.1075-0.9095-0.176-1.3683-0.4694c0-0.1566-0.1956-0.4695,0.1566-0.4206v-0.4694l0.1566-0.0977
		c0.002-0.4108-0.1369-0.89-0.264-1.3428c0.0979-0.1468,0.1956-0.1956,0.2934-0.2641c0.225,0.2347,0.4401,0.4401,0.577,0
		c0.2152,0.3325,0.4597,0.3228,0.7629-0.0979c0.2543,0.3716,0.4792,0.4695,0.6553-0.1858c0.2444,0.1956,0.4988,0.5282,0.7335-0.264
		c0.4206,0.1075,0.8118,0.1566,0.7335-0.5281c0.4401,0.1271,0.5184-0.1369,0.3912-0.6553c0.4597-0.0977,0.2543-0.4597,0.1566-0.7922
		c0.1858-0.1075,0.137-0.3521,0.137-0.5477c0.4792,0.1369,0.4108-0.137,0.3912-0.3716c0.3521,0.0979,0.538,0,0.5281-0.4499
		c0.5281,0.2152,0.4205-0.225,0.4695-0.4988c0.4694,0,0.4694-0.3032,0.4499-0.6553c0.2054-0.1468,0.3716-0.2935,0.2347-0.6064
		c0.4009-0.2739,0.5574-0.5771,0.3129-0.9194c0.1467-0.2739,0.6846-0.3325,0.1566-0.9683c0.1956-0.4206,1.0161-0.5966,0.4695-1.29
		c0.4499-0.4401,0.5184-0.8509,0.264-1.2372c0.313-0.577,1.1923-1.333,0.4988-1.5786c-0.3032-0.1173,0.3717-1.0563,0.5477-1.5805
		c0-0.001-0.0977-0.001-0.1075,0L16.2793,466.9935z M4.1715,471.4162c0.0979,0,0.1271,0,0.1566,0.0977
		c0.1271,0.1271,0.1271,0.4792,0,0.6064c-0.0977,0.0977-0.2543,0.0977-0.313,0c-0.1271-0.1271-0.1271-0.4792,0-0.6064
		c0,0,0.0977-0.0977,0.1566-0.0977H4.1715z M5.0614,471.4162c0.0977,0,0.1271,0,0.1566,0.0977c0.1271,0.1271,0.1271,0.4792,0,0.6064
		c-0.0977,0.0977-0.2543,0.0977-0.313,0c-0.1271-0.1271-0.1271-0.4792,0-0.6064c0,0,0.0979-0.0977,0.1566-0.0977H5.0614z
		 M4.406,481.8125c0.0979,0.5184,0,1.0338,0,1.5532c-0.1369-0.1467-0.3032-0.2445-0.3912-0.577v-0.3716
		c0.137-0.225,0.1271-0.5575,0.4695-0.6064L4.406,481.8125z M3.2746,483.1816c0.1173-0.002,0.2543,0,0.3912,0.1075
		c0.1173,0.4597,0.0977,0.7042-0.1566,0.7922c-0.1956-0.3814-0.4401-0.3716-0.6846-0.137
		c-0.1173,0.3326-0.2836,0.4792-0.4988,0.5282v-0.3912c0.2739-0.4695,0.5575-0.89,0.9781-0.89L3.2746,483.1816z M6.0375,485.6815
		c0.5184,0,0.9917,0.1858,1.4484,0.3717c1.8212,0.7335,3.1053,2.4812,3.1053,4.5801c0,2.5634-1.8885,4.6349-4.3689,4.9214v-0.5281
		l1.3947-0.0977c-0.4108-1.1561-1.1354-1.9434-1.1844-3.5268c1.3555,0.0979,2.4578,0.665,3.5796,1.2108l-0.1075-4.0803
		c-0.8998,0.577-1.605,1.2529-3.5004,1.29c-0.1369-1.4416,0.5477-2.6054,1.1052-3.8163l-1.4475,0.1271v-0.4988L6.0375,485.6815z
		 M4.906,485.6815c0.0043,0.176,0,0.3521,0,0.5575l-1.7369,0.137c0.8802,1.243,1.4455,2.494,1.3682,3.7371
		c-1.4054-0.0979-2.2856-0.7824-3.3165-1.3164l0.1075,3.8964c1.0025-0.5477,2.0021-1.1276,3.3165-1.2108
		c0.2444,1.2734-0.4792,2.4314-0.89,3.6324l1.3956-0.0979c0.0043,0.1664,0,0.3619,0,0.4988
		c-2.5536-0.2152-4.5273-2.3326-4.5273-4.9479c0-2.5194,1.8231-4.5782,4.2379-4.9224L4.906,485.6815z M5.7763,512.8975
		l0.0977,3.2382c-0.8802,0-1.6274,0-2.3952-0.0977c0,0-0.3032-0.4108-0.3716-0.4695c-0.1566-0.1664,1.3154-2.6622,1.5531-2.5008
		c0.3619,0,0.7238-0.0979,1.158-0.2152L5.7763,512.8975z M6.9079,513.2397h0.3423c0.0043,0.5673,0.0087,1.113,0.1271,1.9208
		c-0.0977,0.3325-0.2543,0.4988-0.3912,0.714l-0.098-2.6592L6.9079,513.2397z M17.542,534.2451
		c0.4303,0.4792,0.3032,0.9683,0.3716,1.4474l0.6357,0.1858l1.1061,3.6588c-0.6357-0.3619-1.3321-0.6161-2.0275-0.8704
		l-0.6553-3.1591c0.401-0.176,0.5184-0.6846,0.577-1.2636L17.542,534.2451z M3.6971,536.614v0.6846
		c-0.2934,0.5575-0.626,0.8118-0.9781,0.978v-1.1325l0.9781-0.5281V536.614z M-1.4621,540.0351c0.002,0-0.002,0.0977,0,0.0977
		c-2.6896,1.9904-4.9205,4.4276-6.8959,7.1329l-0.2935-3.6588c2.3756-1.1423,4.718-2.2289,7.1854-3.5541L-1.4621,540.0351z
		 M-44.5771,544.6674c0.0979,0,0.2836,1.7947,0.2347,1.6587c-0.0977-0.2836-0.7042-0.2152-0.8411,0.1075
		c-0.176-0.1173-0.1956-0.4108-0.2347-0.6064c0.1661-0.4597,0.5183-0.8019,0.8411-1.159V544.6674z M-15.6496,546.2733
		c-0.1075,0.7825-0.2054,1.561-0.2641,2.3434l-0.2934,0.4988c-5.3127,0.3032-10.7482,0.3716-15.7403-0.2347
		c5.6179-0.1956,11.0469-1.0474,16.293-2.6055L-15.6496,546.2733z M-44.6297,546.371v0.6553c-0.313,0-0.3521-0.176-0.3912-0.3716
		c0.0979-0.3423,0.2152-0.2641,0.3716-0.2934L-44.6297,546.371z M29.3055,546.6644c2.8412,0.8998,5.5229,2.2319,8.2391,3.4476
		c-2.629-0.489-5.2677-0.939-7.8964-1.8152c0,0,0-0.0979-0.0977-0.1369c0.3716-0.401,0.2152-0.7042,0.2054-1.026l-0.3912,0.0979
		l-0.0979-0.5281L29.3055,546.6644z M-45.1286,547.0071c0.1467,0.2054,0.2739,0.2934,0.7629,0.2152
		c0,0.8313,0.0977,1.6137-0.0979,1.8162c-0.3716-0.1271-0.7629-0.2153-1.0533-0.3912c0.4988-0.4694,0.5574-1.0553,0.3716-1.6323
		L-45.1286,547.0071z M62.5769,547.6624c-0.137,0.5281-0.264,1.0426-0.6846,1.3947c0-0.3619-0.0977-0.7238-0.0977-1.027
		c0.2543-0.176,0.5085-0.3032,0.7628-0.3716L62.5769,547.6624z M-35.1825,548.7148c6.3611,0.8802,12.1138,1.1159,18.7674,0.7628
		l0.3912,0.0977l-0.264,1.1306c-1.023,1.0631-1.9111,2.2436-2.5536,3.6862c-0.9781,0.9683-0.5477,1.7576-0.4499,2.6055
		c-0.3619,1.6705-0.3228,3.3566-0.0977,5.0271l0.5281,1.8162c-1.2186-0.5673-3.3194-1.738-4.4216-2.5262
		c0.0087-0.0979,0-0.0979,0.0977-0.1566c-0.1369-4.9919,0.665-10.5815-7.45-10.4758c-1.4221-0.1271-2.759-0.3228-3.6324-0.8411
		l-0.9193-1.0259v-0.0979L-35.1825,548.7148z M29.9102,548.7148c2.4852,0.8704,5.1786,1.2744,7.7644,1.6851
		c2.0284,0.7335,4.5958,1.7888,6.0804,2.0792c0.3716,0.0979,0.9096,0,1.5003-0.0977c-0.8509,0.5184-1.5844,1.158-2.0529,1.869
		c-0.0977,0.0979,0.1858,0.2347,0.1858,0.2347l-0.3716,0.89c-0.5966,1.4182-0.9683,2.894-1.2108,4.3953l-6.3963,4.1068
		l-0.6357,0.1075c0-1.4152,0.4205-2.936-0.1858-4.1321c0-2.937,0.0979-5.9259-0.1566-8.7912l-2.5527-0.0979l-0.1858,1.027
		c-0.6455-1.4015-1.2137-2.3277-1.7898-3.3165L29.9102,548.7148z M52.0999,550.2151v0.0977
		c-0.4205,0.1858-0.9839,0.3521-1.5531,0.4988c-0.6846-0.0087-1.5326,0.1369-2.4216,0.3912c-0.0087,0.0043,0-0.0043,0,0
		c-0.4988,0.1468-1.0259,0.3325-1.5267,0.5477c-0.9194,0.3325-1.8563,0.5966-2.6847,0.3129l-4.764-1.6049h-0.1566
		c4.3669,0.2836,8.723,0.6161,13.1602-0.2054L52.0999,550.2151z M51.914,550.5867l-0.2152,0.4694
		c-0.1538-0.0978-0.3396-0.1661-0.5743-0.2153c0.3032-0.0978,0.5673-0.1858,0.7922-0.2639L51.914,550.5867z M41.6517,561.0362
		c-0.1467,1.1785-0.2543,2.3629-0.3423,3.5541c-0.001,0.0087,0,0,0,0l-5.5542,0.0979l5.8965-3.6324V561.0362z M-23.4686,562.1424
		c1.7555,1.1394,3.3135,1.8338,4.8432,2.448v0.1271l-5.6589-0.1271c0.2836-0.8118,0.5673-1.6216,0.7922-2.4481L-23.4686,562.1424z
		 M40.0984,565.4842l0.1566,20.8735h-5.2648l-0.0977-6.1586v-8.633h0.6064l0.1566-1.3956h1.1061
		c0.2934-0.6064,0.264-1.2333,0-1.8416h-1.1061l-0.1858-1.5277h-0.6064v-1.1844l5.1591-0.1369L40.0984,565.4842z M-24.6266,565.6212
		l1.9746,0.0977l-0.1858,20.6883h-4.0011c-0.0087-1.6685-0.3521-4.4139,0.0979-4.6583c0.9096-0.225,1.0974-0.8411,0.714-1.7634
		c0.9584-1.2206,1.7418-2.4744,0.7335-4.185c-0.0979-1.7321-0.1857-3.5698-0.2934-5.5014l0.3912,0.264
		c0.1566-0.7335-0.1075-1.3907-0.4499-2.0275c0.3227-0.9585,0.6749-1.914,1.0259-2.8686L-24.6266,565.6212z M-22.1258,565.7189
		l3.7899,0.0979c0.401,2.6318,1.9775,4.9165,1.1316,7.9233c1.113,2.4431,1.5033,5.0399,1.3428,7.7382
		c0.3716,1.3243,0.577,2.5742-0.1858,3.3948c0.0979,0.5281,0.2152,1.0768,0.0979,1.5532h-6.5274l0.3716-20.6883L-22.1258,565.7189z
		 M-29.9961,566.0905v1.158c-0.5575,0.7042-0.6748,1.2245-0.8411,1.737l-0.264-0.4988l1.1052-2.3942v-0.002H-29.9961z
		 M-11.0448,571.4863h0.714c0.6943,2.09-0.3619,3.6823,0.6357,5.5278c-0.2641,0.9682,0.001,1.9512,0.3716,2.9213
		c0.313,1.1238,0.5673,2.3189,1.737,2.5801v3.8945h-3.8956l-0.577-2.316l0.2347-3.9219c0.2347-1.3409,0.1956-2.2642,0.1858-3.2373
		c0.6357-1.1022,0.8019-2.4167,0.1566-4.0275c-0.1956-0.538-0.1468-1.0142,0.4205-1.4211L-11.0448,571.4863z M-6.359,571.7797
		c0.6846,0.0979,1.3682-0.0977,2.0529,0.313l0.2347,0.7922c-0.6064,1.5404-0.0977,3.1805,0.4206,4.8432l0.1075,4.3962
		c-0.3228,1.0298-0.6553,2.0627-0.1075,3.3429c-0.1271,0.4792-0.4108,0.626-0.6553,0.8705l0.1271,0.0977h-2.6064v-3.8945
		c0.665-0.3032,1.0054-0.8411,1.29-1.3957c0.264-1.1003,0.3032-2.1321,0.1857-3.1062c-0.4988-2.0842-1.1776-4.1537-1.0787-6.2379
		L-6.359,571.7797z M30.3591,571.9362h0.8704l0.4988,0.4695l0.1857,0.7335l0.4695,13.2396h-1.9219v-1.7625
		c-0.4597,0.0043-0.8509-0.0977-0.8117-0.4205l0.2934-4.2642c0.6846-1.2451-0.0977-1.7927-0.2934-2.5801
		c0.264-0.6357,0.3325-1.4807,0.2152-2.4999c0.7726-0.5868,0.4205-1.9071,0.4988-2.9487L30.3591,571.9362z M23.3575,572.1219
		c0.1664,1.3487,0.2935,2.7209,0.9487,3.9473l0.3716,1.7643c-0.3521,1.9942,0.313,2.3512,0.5281,3.4485l-0.5281,1.4211
		c0.7629,0.8802,1.1981,1.7536,2.9478,0.6553l-0.1075,0.7629c0.264,0.3129,0.3032,0.6357-0.313,0.9487l0.1075,1.3419h-6.5538
		v-0.5282c0.4108-1.2108,0.5086-2.3052,0.1566-3.2636c-0.1467-2.3864,0.1662-4.6584,1.027-6.7915
		c0.2934-1.0426-0.4988-2.1371,0.2347-3.5268l1.158-0.1858L23.3575,572.1219z M-1.3584,572.1219l10.0024,1.1052l0.0979,11.6608
		L7.93,586.3609h-9.5809h0.0979c-0.3325-0.3618-0.7042-0.7042-0.2934-1.6851l-0.1858-2.5262l0.3912-4.7122
		c0.5966-1.7184,1.024-3.473,0.3716-5.3166L-1.3584,572.1219z M17.8041,572.6698l0.0977,0.3716l-0.7922,0.2347
		c-0.7628,2.2426-0.6259,3.8201,2.1321,3.4221l-0.137,5.8427c-0.3814,0.8998-0.4792,1.8759,0,3.027l-0.313,0.8118h-6.1068
		l-0.7922-1.9472l-0.1858-9.8173l0.5281-0.3912v-0.9487l5.5543-0.6063L17.8041,572.6698z M-29.8387,575.0649
		c0.313-0.0087,0.2836,0.4108,0.2934,0.7922C-29.7898,575.73-29.9072,575.417-29.8387,575.0649z M-32.945,575.2507l0.2347,1.7096
		c0.7824,1.87,1.2284,3.9933,0.1271,7.3443v1.2636c-0.2641,0.2836-0.7042,0.4792-1.1316,0.6846l-0.1858-1.606l0.5477-4.5801v-3.9747
		l0.4694-0.8411L-32.945,575.2507z M-27.7859,582.8832l0.1858,3.5004h-1.8152v-2.5262c0.6553-0.2543,1.2441-0.4206,1.605-0.9781
		L-27.7859,582.8832z M-30.3649,585.2783l0.1369,1.1052h-0.6846C-30.8147,585.9532-30.8147,585.4446-30.3649,585.2783
		L-30.3649,585.2783z"/>
</g>
</svg>
